M48
INCH,TZ
T1C0.025
T2C0.035
T3C0.040
T4C0.100
%
G90
G05
T1
X1.0535Y-1.251
X1.125Y-1.75
X1.141Y-1.6
X1.16Y-1.251
X1.21Y-1.701
X1.2565Y-1.4425
X1.274Y-1.65
X1.3325Y-1.879
X1.366Y-1.213
X1.445Y-2.048
X1.491Y-1.538
X1.545Y-2.141
X1.5875Y-1.87
X1.614Y-1.491
X1.62Y-1.7175
X1.645Y-2.047
X1.6875Y-1.65
X1.707Y-1.493
X1.707Y-1.57
X1.72Y-1.698
X1.735Y-2.1625
X1.7475Y-1.87
X1.8Y-1.32
X1.8Y-1.388
X1.8075Y-1.445
X1.838Y-1.522
X1.851Y-1.96
X1.8715Y-1.355
X1.8825Y-1.5875
X1.8825Y-1.7125
X1.8905Y-1.493
X1.8925Y-1.8775
X1.9225Y-1.5875
X1.9225Y-1.7125
X1.9455Y-1.3925
X1.9805Y-1.2895
X2.0075Y-1.775
X2.0075Y-1.825
X2.025Y-1.29
X2.0975Y-1.825
X2.1575Y-1.7
X2.185Y-2.0275
X2.2205Y-1.7275
X2.265Y-1.728
X2.2675Y-1.37
X2.6325Y-2.11
X2.6625Y-1.156
X2.69Y-2.0225
X2.777Y-1.37
X2.8125Y-1.97
X2.85Y-1.1225
X2.87Y-2.0025
X2.9575Y-2.01
X3.0905Y-1.815
X3.092Y-1.7435
X3.15Y-1.745
X3.1775Y-1.51
X3.301Y-2.
X3.3825Y-1.0775
X3.3825Y-1.1225
X3.451Y-1.5
T2
X1.16Y-1.965
X1.475Y-1.965
T3
X1.8575Y-1.08
X1.8575Y-1.18
X1.9575Y-1.08
X1.9575Y-1.18
X2.0325Y-2.11
X2.0575Y-1.08
X2.0575Y-1.18
X2.1325Y-1.96
X2.1325Y-2.11
X2.2325Y-1.96
X2.2325Y-2.11
X2.3325Y-1.96
X2.3325Y-2.11
X2.4325Y-1.96
X2.4325Y-2.11
X2.5325Y-1.96
X2.5325Y-2.11
X2.6325Y-1.96
X2.7325Y-1.96
X2.7325Y-2.11
X2.8325Y-2.11
X2.9325Y-2.11
X3.0325Y-2.11
X3.1125Y-1.08
X3.1125Y-1.2
X3.1125Y-1.3
X3.1325Y-2.11
X3.2325Y-1.08
X3.2325Y-1.2
X3.2325Y-1.3
X3.2325Y-1.46
X3.2325Y-1.56
X3.2325Y-1.66
X3.2325Y-1.76
X3.2325Y-1.86
X3.2325Y-1.96
X3.2325Y-2.11
X3.39Y-1.2
X3.39Y-1.3
X3.39Y-1.4
X3.39Y-1.5
X3.39Y-1.6
X3.39Y-1.7
X3.39Y-1.8
X3.39Y-1.9
X3.39Y-2.
X3.46Y-1.2
X3.46Y-1.3
X3.46Y-1.4
T4
X1.8725Y-2.125
T0
M30
