%FSLAX34Y34*%
G04 Gerber Fmt 3.4, Leading zero omitted, Abs format*
G04 (created by PCBNEW (2014-05-21 BZR 4875)-product) date Thursday 22 May 2014 05:15:51 PM IST*
%MOIN*%
G01*
G70*
G90*
G04 APERTURE LIST*
%ADD10C,0.005906*%
%ADD11C,0.010000*%
%ADD12C,0.060000*%
%ADD13R,0.050000X0.060000*%
%ADD14R,0.060000X0.060000*%
%ADD15C,0.080000*%
%ADD16R,0.080000X0.080000*%
%ADD17R,0.076000X0.062000*%
%ADD18R,0.062000X0.076000*%
%ADD19R,0.060000X0.070000*%
%ADD20R,0.037700X0.098700*%
%ADD21R,0.098700X0.037700*%
%ADD22R,0.079000X0.071200*%
%ADD23R,0.071200X0.079000*%
%ADD24C,0.140000*%
%ADD25R,0.050000X0.080000*%
%ADD26R,0.060000X0.080000*%
%ADD27R,0.080000X0.100000*%
%ADD28C,0.065000*%
%ADD29R,0.079100X0.059400*%
%ADD30R,0.051500X0.067200*%
%ADD31R,0.084000X0.140000*%
%ADD32R,0.098740X0.067244*%
G04 APERTURE END LIST*
G54D10*
G54D11*
X10000Y-10000D02*
X35000Y-10000D01*
X35000Y-22000D02*
X10000Y-22000D01*
X35000Y-10000D02*
X35000Y-22000D01*
X10000Y-22000D02*
X10000Y-10000D01*
G54D12*
X17350Y-21625D03*
X15875Y-18700D03*
X25325Y-19600D03*
X24325Y-19600D03*
X23325Y-19600D03*
X22325Y-19600D03*
G54D13*
X19225Y-17125D03*
X19225Y-15875D03*
G54D12*
X17475Y-18700D03*
G54D13*
X18825Y-15875D03*
X18825Y-17125D03*
G54D14*
X26325Y-19600D03*
G54D12*
X27325Y-19600D03*
X26325Y-21100D03*
G54D15*
X33900Y-20000D03*
X33900Y-19000D03*
G54D16*
X33900Y-18000D03*
G54D15*
X33900Y-12000D03*
X33900Y-13000D03*
X33900Y-14000D03*
X33900Y-15000D03*
X33900Y-16000D03*
X33900Y-17000D03*
G54D12*
X34640Y-12000D03*
X34640Y-13000D03*
X34640Y-14000D03*
X21325Y-19600D03*
G54D15*
X32325Y-12000D03*
G54D16*
X32325Y-13000D03*
G54D17*
X17825Y-16925D03*
X17825Y-16125D03*
X25050Y-14400D03*
X25050Y-13600D03*
G54D18*
X26055Y-13310D03*
X26855Y-13310D03*
X26800Y-16750D03*
X26000Y-16750D03*
X24080Y-10990D03*
X23280Y-10990D03*
X22405Y-10990D03*
X21605Y-10990D03*
G54D19*
X25775Y-10975D03*
X24975Y-10975D03*
X27400Y-10975D03*
X26600Y-10975D03*
G54D20*
X21423Y-14716D03*
X21738Y-14716D03*
X22053Y-14716D03*
X22368Y-14716D03*
X22682Y-14716D03*
X22997Y-14716D03*
X23312Y-14716D03*
X23627Y-14716D03*
X23627Y-17984D03*
X21423Y-17984D03*
X21738Y-17984D03*
X22053Y-17984D03*
X22368Y-17984D03*
X22682Y-17984D03*
X22997Y-17984D03*
X23312Y-17984D03*
G54D21*
X24159Y-15248D03*
X24159Y-15563D03*
X24159Y-15878D03*
X24159Y-16193D03*
X24159Y-16507D03*
X24159Y-16822D03*
X24159Y-17137D03*
X24159Y-17452D03*
X20891Y-15248D03*
X20891Y-15563D03*
X20891Y-15878D03*
X20891Y-16193D03*
X20891Y-16507D03*
X20891Y-16822D03*
X20891Y-17137D03*
X20891Y-17452D03*
G54D15*
X20325Y-21100D03*
X21325Y-21100D03*
X22325Y-21100D03*
G54D16*
X23325Y-21100D03*
X24325Y-21100D03*
G54D15*
X25325Y-21100D03*
X27325Y-21100D03*
X28325Y-21100D03*
X29325Y-21100D03*
X30325Y-21100D03*
X31325Y-21100D03*
X32325Y-21100D03*
X31125Y-12000D03*
G54D16*
X31125Y-13000D03*
X32325Y-19600D03*
G54D15*
X32325Y-18600D03*
X32325Y-17600D03*
X32325Y-16600D03*
X32325Y-15600D03*
X32325Y-14600D03*
X18575Y-11800D03*
X18575Y-10800D03*
X19575Y-11800D03*
X19575Y-10800D03*
X20575Y-11800D03*
G54D16*
X20575Y-10800D03*
G54D22*
X31325Y-18975D03*
X31325Y-19725D03*
X30275Y-18975D03*
X30275Y-19725D03*
G54D23*
X25000Y-12085D03*
X25750Y-12085D03*
X26775Y-17750D03*
X26025Y-17750D03*
X26625Y-12085D03*
X27375Y-12085D03*
G54D24*
X18725Y-21250D03*
G54D25*
X12625Y-15350D03*
X12192Y-15350D03*
X11759Y-15350D03*
X11326Y-15350D03*
X10893Y-15350D03*
X13058Y-15350D03*
X13491Y-15350D03*
X13924Y-15350D03*
X14357Y-15350D03*
G54D26*
X10363Y-15586D03*
G54D27*
X10499Y-19434D03*
G54D26*
X16562Y-19434D03*
G54D16*
X16240Y-15504D03*
G54D28*
X11600Y-19650D03*
X14750Y-19650D03*
G54D29*
X19425Y-19375D03*
X17375Y-19375D03*
X17375Y-20075D03*
X19425Y-20075D03*
G54D30*
X26830Y-14340D03*
X26455Y-15290D03*
X26080Y-14340D03*
G54D31*
X29070Y-15840D03*
X29045Y-14040D03*
G54D32*
X22191Y-12988D03*
X23648Y-12121D03*
X22191Y-12121D03*
X23648Y-12988D03*
M02*
