%FSLAX34Y34*%
G04 Gerber Fmt 3.4, Leading zero omitted, Abs format*
G04 (created by PCBNEW (2014-05-21 BZR 4875)-product) date Thursday 22 May 2014 05:16:08 PM IST*
%MOIN*%
G01*
G70*
G90*
G04 APERTURE LIST*
%ADD10C,0.005000*%
%ADD11C,0.010000*%
%ADD12C,0.007874*%
%ADD13C,0.011811*%
G04 APERTURE END LIST*
G54D10*
G54D11*
X10000Y-10000D02*
X35000Y-10000D01*
X35000Y-22000D02*
X10000Y-22000D01*
X35000Y-10000D02*
X35000Y-22000D01*
X10000Y-22000D02*
X10000Y-10000D01*
G54D12*
X10410Y-12385D02*
X10660Y-12635D01*
X10660Y-12385D02*
X10410Y-12635D01*
X11125Y-17375D02*
X11375Y-17625D01*
X11375Y-17375D02*
X11125Y-17625D01*
X11285Y-15875D02*
X11535Y-16125D01*
X11535Y-15875D02*
X11285Y-16125D01*
X11475Y-12385D02*
X11725Y-12635D01*
X11725Y-12385D02*
X11475Y-12635D01*
X11975Y-16885D02*
X12225Y-17135D01*
X12225Y-16885D02*
X11975Y-17135D01*
X12440Y-14300D02*
X12690Y-14550D01*
X12690Y-14300D02*
X12440Y-14550D01*
X12615Y-16375D02*
X12865Y-16625D01*
X12865Y-16375D02*
X12615Y-16625D01*
X13200Y-18665D02*
X13450Y-18915D01*
X13450Y-18665D02*
X13200Y-18915D01*
X13535Y-12005D02*
X13785Y-12255D01*
X13785Y-12005D02*
X13535Y-12255D01*
X14325Y-20355D02*
X14575Y-20605D01*
X14575Y-20355D02*
X14325Y-20605D01*
X14785Y-15255D02*
X15035Y-15505D01*
X15035Y-15255D02*
X14785Y-15505D01*
X15325Y-21285D02*
X15575Y-21535D01*
X15575Y-21285D02*
X15325Y-21535D01*
X15750Y-18575D02*
X16000Y-18825D01*
X16000Y-18575D02*
X15750Y-18825D01*
X16015Y-14785D02*
X16265Y-15035D01*
X16265Y-14785D02*
X16015Y-15035D01*
X16075Y-17050D02*
X16325Y-17300D01*
X16325Y-17050D02*
X16075Y-17300D01*
X16325Y-20345D02*
X16575Y-20595D01*
X16575Y-20345D02*
X16325Y-20595D01*
X16750Y-16375D02*
X17000Y-16625D01*
X17000Y-16375D02*
X16750Y-16625D01*
X16945Y-14805D02*
X17195Y-15055D01*
X17195Y-14805D02*
X16945Y-15055D01*
X16945Y-15575D02*
X17195Y-15825D01*
X17195Y-15575D02*
X16945Y-15825D01*
X17075Y-16855D02*
X17325Y-17105D01*
X17325Y-16855D02*
X17075Y-17105D01*
X17225Y-21500D02*
X17475Y-21750D01*
X17475Y-21500D02*
X17225Y-21750D01*
X17350Y-18575D02*
X17600Y-18825D01*
X17600Y-18575D02*
X17350Y-18825D01*
X17875Y-13075D02*
X18125Y-13325D01*
X18125Y-13075D02*
X17875Y-13325D01*
X17875Y-13755D02*
X18125Y-14005D01*
X18125Y-13755D02*
X17875Y-14005D01*
X17950Y-14325D02*
X18200Y-14575D01*
X18200Y-14325D02*
X17950Y-14575D01*
X18255Y-15095D02*
X18505Y-15345D01*
X18505Y-15095D02*
X18255Y-15345D01*
X18385Y-19475D02*
X18635Y-19725D01*
X18635Y-19475D02*
X18385Y-19725D01*
X18590Y-13425D02*
X18840Y-13675D01*
X18840Y-13425D02*
X18590Y-13675D01*
X18700Y-15750D02*
X18950Y-16000D01*
X18950Y-15750D02*
X18700Y-16000D01*
X18700Y-17000D02*
X18950Y-17250D01*
X18950Y-17000D02*
X18700Y-17250D01*
X18780Y-14805D02*
X19030Y-15055D01*
X19030Y-14805D02*
X18780Y-15055D01*
X19075Y-18620D02*
X19325Y-18870D01*
X19325Y-18620D02*
X19075Y-18870D01*
X19100Y-15750D02*
X19350Y-16000D01*
X19350Y-15750D02*
X19100Y-16000D01*
X19100Y-17000D02*
X19350Y-17250D01*
X19350Y-17000D02*
X19100Y-17250D01*
X19330Y-13800D02*
X19580Y-14050D01*
X19580Y-13800D02*
X19330Y-14050D01*
X19680Y-12770D02*
X19930Y-13020D01*
X19930Y-12770D02*
X19680Y-13020D01*
X20125Y-12775D02*
X20375Y-13025D01*
X20375Y-12775D02*
X20125Y-13025D01*
X20725Y-17975D02*
X20975Y-18225D01*
X20975Y-17975D02*
X20725Y-18225D01*
X21200Y-19475D02*
X21450Y-19725D01*
X21450Y-19475D02*
X21200Y-19725D01*
X21450Y-16875D02*
X21700Y-17125D01*
X21700Y-16875D02*
X21450Y-17125D01*
X21725Y-19790D02*
X21975Y-20040D01*
X21975Y-19790D02*
X21725Y-20040D01*
X22080Y-17150D02*
X22330Y-17400D01*
X22330Y-17150D02*
X22080Y-17400D01*
X22200Y-19475D02*
X22450Y-19725D01*
X22450Y-19475D02*
X22200Y-19725D01*
X22525Y-17155D02*
X22775Y-17405D01*
X22775Y-17155D02*
X22525Y-17405D01*
X22555Y-13625D02*
X22805Y-13875D01*
X22805Y-13625D02*
X22555Y-13875D01*
X23200Y-19475D02*
X23450Y-19725D01*
X23450Y-19475D02*
X23200Y-19725D01*
X24200Y-19475D02*
X24450Y-19725D01*
X24450Y-19475D02*
X24200Y-19725D01*
X24465Y-18550D02*
X24715Y-18800D01*
X24715Y-18550D02*
X24465Y-18800D01*
X25200Y-19475D02*
X25450Y-19725D01*
X25450Y-19475D02*
X25200Y-19725D01*
X26200Y-19475D02*
X26450Y-19725D01*
X26450Y-19475D02*
X26200Y-19725D01*
X26200Y-20975D02*
X26450Y-21225D01*
X26450Y-20975D02*
X26200Y-21225D01*
X26500Y-11435D02*
X26750Y-11685D01*
X26750Y-11435D02*
X26500Y-11685D01*
X27200Y-19475D02*
X27450Y-19725D01*
X27450Y-19475D02*
X27200Y-19725D01*
X27645Y-13575D02*
X27895Y-13825D01*
X27895Y-13575D02*
X27645Y-13825D01*
X27905Y-11375D02*
X28155Y-11625D01*
X28155Y-11375D02*
X27905Y-11625D01*
X28380Y-11380D02*
X28630Y-11630D01*
X28630Y-11380D02*
X28380Y-11630D01*
X28435Y-19585D02*
X28685Y-19835D01*
X28685Y-19585D02*
X28435Y-19835D01*
X29165Y-19565D02*
X29415Y-19815D01*
X29415Y-19565D02*
X29165Y-19815D01*
X30780Y-18025D02*
X31030Y-18275D01*
X31030Y-18025D02*
X30780Y-18275D01*
X30795Y-17310D02*
X31045Y-17560D01*
X31045Y-17310D02*
X30795Y-17560D01*
X31975Y-11035D02*
X32225Y-11285D01*
X32225Y-11035D02*
X31975Y-11285D01*
X32335Y-10555D02*
X32585Y-10805D01*
X32585Y-10555D02*
X32335Y-10805D01*
X32885Y-19875D02*
X33135Y-20125D01*
X33135Y-19875D02*
X32885Y-20125D01*
X34385Y-14875D02*
X34635Y-15125D01*
X34635Y-14875D02*
X34385Y-15125D01*
X34515Y-11875D02*
X34765Y-12125D01*
X34765Y-11875D02*
X34515Y-12125D01*
X34515Y-12875D02*
X34765Y-13125D01*
X34765Y-12875D02*
X34515Y-13125D01*
X34515Y-13875D02*
X34765Y-14125D01*
X34765Y-13875D02*
X34515Y-14125D01*
X11775Y-19650D02*
G75*
G03X11775Y-19650I-175J0D01*
G74*
G01*
X14925Y-19650D02*
G75*
G03X14925Y-19650I-175J0D01*
G74*
G01*
X18575Y-10600D02*
X18575Y-11000D01*
X18375Y-10800D02*
X18775Y-10800D01*
X18575Y-11600D02*
X18575Y-12000D01*
X18375Y-11800D02*
X18775Y-11800D01*
X19575Y-10600D02*
X19575Y-11000D01*
X19375Y-10800D02*
X19775Y-10800D01*
X19575Y-11600D02*
X19575Y-12000D01*
X19375Y-11800D02*
X19775Y-11800D01*
X20325Y-20900D02*
X20325Y-21300D01*
X20125Y-21100D02*
X20525Y-21100D01*
X20575Y-10600D02*
X20575Y-11000D01*
X20375Y-10800D02*
X20775Y-10800D01*
X20575Y-11600D02*
X20575Y-12000D01*
X20375Y-11800D02*
X20775Y-11800D01*
X21325Y-20900D02*
X21325Y-21300D01*
X21125Y-21100D02*
X21525Y-21100D01*
X22325Y-20900D02*
X22325Y-21300D01*
X22125Y-21100D02*
X22525Y-21100D01*
X23325Y-20900D02*
X23325Y-21300D01*
X23125Y-21100D02*
X23525Y-21100D01*
X24325Y-20900D02*
X24325Y-21300D01*
X24125Y-21100D02*
X24525Y-21100D01*
X25325Y-20900D02*
X25325Y-21300D01*
X25125Y-21100D02*
X25525Y-21100D01*
X27325Y-20900D02*
X27325Y-21300D01*
X27125Y-21100D02*
X27525Y-21100D01*
X28325Y-20900D02*
X28325Y-21300D01*
X28125Y-21100D02*
X28525Y-21100D01*
X29325Y-20900D02*
X29325Y-21300D01*
X29125Y-21100D02*
X29525Y-21100D01*
X30325Y-20900D02*
X30325Y-21300D01*
X30125Y-21100D02*
X30525Y-21100D01*
X31125Y-11800D02*
X31125Y-12200D01*
X30925Y-12000D02*
X31325Y-12000D01*
X31125Y-12800D02*
X31125Y-13200D01*
X30925Y-13000D02*
X31325Y-13000D01*
X31325Y-20900D02*
X31325Y-21300D01*
X31125Y-21100D02*
X31525Y-21100D01*
X32325Y-11800D02*
X32325Y-12200D01*
X32125Y-12000D02*
X32525Y-12000D01*
X32325Y-12800D02*
X32325Y-13200D01*
X32125Y-13000D02*
X32525Y-13000D01*
X32325Y-14400D02*
X32325Y-14800D01*
X32125Y-14600D02*
X32525Y-14600D01*
X32325Y-15400D02*
X32325Y-15800D01*
X32125Y-15600D02*
X32525Y-15600D01*
X32325Y-16400D02*
X32325Y-16800D01*
X32125Y-16600D02*
X32525Y-16600D01*
X32325Y-17400D02*
X32325Y-17800D01*
X32125Y-17600D02*
X32525Y-17600D01*
X32325Y-18400D02*
X32325Y-18800D01*
X32125Y-18600D02*
X32525Y-18600D01*
X32325Y-19400D02*
X32325Y-19800D01*
X32125Y-19600D02*
X32525Y-19600D01*
X32325Y-20900D02*
X32325Y-21300D01*
X32125Y-21100D02*
X32525Y-21100D01*
X33900Y-11800D02*
X33900Y-12200D01*
X33700Y-12000D02*
X34100Y-12000D01*
X33900Y-12800D02*
X33900Y-13200D01*
X33700Y-13000D02*
X34100Y-13000D01*
X33900Y-13800D02*
X33900Y-14200D01*
X33700Y-14000D02*
X34100Y-14000D01*
X33900Y-14800D02*
X33900Y-15200D01*
X33700Y-15000D02*
X34100Y-15000D01*
X33900Y-15800D02*
X33900Y-16200D01*
X33700Y-16000D02*
X34100Y-16000D01*
X33900Y-16800D02*
X33900Y-17200D01*
X33700Y-17000D02*
X34100Y-17000D01*
X33900Y-17800D02*
X33900Y-18200D01*
X33700Y-18000D02*
X34100Y-18000D01*
X33900Y-18800D02*
X33900Y-19200D01*
X33700Y-19000D02*
X34100Y-19000D01*
X33900Y-19800D02*
X33900Y-20200D01*
X33700Y-20000D02*
X34100Y-20000D01*
G54D13*
X11018Y-23883D02*
X11018Y-22702D01*
X11299Y-22702D01*
X11468Y-22758D01*
X11581Y-22871D01*
X11637Y-22983D01*
X11693Y-23208D01*
X11693Y-23377D01*
X11637Y-23602D01*
X11581Y-23714D01*
X11468Y-23827D01*
X11299Y-23883D01*
X11018Y-23883D01*
X12199Y-23883D02*
X12199Y-23096D01*
X12199Y-23321D02*
X12255Y-23208D01*
X12312Y-23152D01*
X12424Y-23096D01*
X12537Y-23096D01*
X12930Y-23883D02*
X12930Y-23096D01*
X12930Y-22702D02*
X12874Y-22758D01*
X12930Y-22814D01*
X12987Y-22758D01*
X12930Y-22702D01*
X12930Y-22814D01*
X13662Y-23883D02*
X13549Y-23827D01*
X13493Y-23714D01*
X13493Y-22702D01*
X14280Y-23883D02*
X14168Y-23827D01*
X14111Y-23714D01*
X14111Y-22702D01*
X15630Y-23883D02*
X15630Y-22702D01*
X16024Y-23546D01*
X16417Y-22702D01*
X16417Y-23883D01*
X17486Y-23883D02*
X17486Y-23264D01*
X17430Y-23152D01*
X17317Y-23096D01*
X17092Y-23096D01*
X16980Y-23152D01*
X17486Y-23827D02*
X17374Y-23883D01*
X17092Y-23883D01*
X16980Y-23827D01*
X16924Y-23714D01*
X16924Y-23602D01*
X16980Y-23489D01*
X17092Y-23433D01*
X17374Y-23433D01*
X17486Y-23377D01*
X18048Y-23096D02*
X18048Y-24277D01*
X18048Y-23152D02*
X18161Y-23096D01*
X18386Y-23096D01*
X18498Y-23152D01*
X18555Y-23208D01*
X18611Y-23321D01*
X18611Y-23658D01*
X18555Y-23771D01*
X18498Y-23827D01*
X18386Y-23883D01*
X18161Y-23883D01*
X18048Y-23827D01*
X19117Y-23771D02*
X19173Y-23827D01*
X19117Y-23883D01*
X19061Y-23827D01*
X19117Y-23771D01*
X19117Y-23883D01*
X19117Y-23152D02*
X19173Y-23208D01*
X19117Y-23264D01*
X19061Y-23208D01*
X19117Y-23152D01*
X19117Y-23264D01*
X9699Y-25704D02*
X9949Y-25954D01*
X9949Y-25704D02*
X9699Y-25954D01*
X11243Y-25182D02*
X11356Y-25182D01*
X11468Y-25238D01*
X11524Y-25295D01*
X11581Y-25407D01*
X11637Y-25632D01*
X11637Y-25913D01*
X11581Y-26138D01*
X11524Y-26251D01*
X11468Y-26307D01*
X11356Y-26363D01*
X11243Y-26363D01*
X11131Y-26307D01*
X11074Y-26251D01*
X11018Y-26138D01*
X10962Y-25913D01*
X10962Y-25632D01*
X11018Y-25407D01*
X11074Y-25295D01*
X11131Y-25238D01*
X11243Y-25182D01*
X12143Y-26251D02*
X12199Y-26307D01*
X12143Y-26363D01*
X12087Y-26307D01*
X12143Y-26251D01*
X12143Y-26363D01*
X13212Y-25182D02*
X12987Y-25182D01*
X12874Y-25238D01*
X12818Y-25295D01*
X12705Y-25463D01*
X12649Y-25688D01*
X12649Y-26138D01*
X12705Y-26251D01*
X12762Y-26307D01*
X12874Y-26363D01*
X13099Y-26363D01*
X13212Y-26307D01*
X13268Y-26251D01*
X13324Y-26138D01*
X13324Y-25857D01*
X13268Y-25745D01*
X13212Y-25688D01*
X13099Y-25632D01*
X12874Y-25632D01*
X12762Y-25688D01*
X12705Y-25745D01*
X12649Y-25857D01*
X14336Y-25576D02*
X14336Y-26363D01*
X14055Y-25126D02*
X13774Y-25970D01*
X14505Y-25970D01*
X14955Y-26363D02*
X14955Y-25576D01*
X14955Y-25688D02*
X15011Y-25632D01*
X15124Y-25576D01*
X15293Y-25576D01*
X15405Y-25632D01*
X15461Y-25745D01*
X15461Y-26363D01*
X15461Y-25745D02*
X15518Y-25632D01*
X15630Y-25576D01*
X15799Y-25576D01*
X15911Y-25632D01*
X15967Y-25745D01*
X15967Y-26363D01*
X16530Y-26363D02*
X16530Y-25576D01*
X16530Y-25688D02*
X16586Y-25632D01*
X16699Y-25576D01*
X16867Y-25576D01*
X16980Y-25632D01*
X17036Y-25745D01*
X17036Y-26363D01*
X17036Y-25745D02*
X17092Y-25632D01*
X17205Y-25576D01*
X17374Y-25576D01*
X17486Y-25632D01*
X17542Y-25745D01*
X17542Y-26363D01*
X19848Y-25126D02*
X18836Y-26645D01*
X21367Y-25182D02*
X21479Y-25182D01*
X21592Y-25238D01*
X21648Y-25295D01*
X21704Y-25407D01*
X21761Y-25632D01*
X21761Y-25913D01*
X21704Y-26138D01*
X21648Y-26251D01*
X21592Y-26307D01*
X21479Y-26363D01*
X21367Y-26363D01*
X21254Y-26307D01*
X21198Y-26251D01*
X21142Y-26138D01*
X21086Y-25913D01*
X21086Y-25632D01*
X21142Y-25407D01*
X21198Y-25295D01*
X21254Y-25238D01*
X21367Y-25182D01*
X22267Y-26251D02*
X22323Y-26307D01*
X22267Y-26363D01*
X22210Y-26307D01*
X22267Y-26251D01*
X22267Y-26363D01*
X23054Y-25182D02*
X23167Y-25182D01*
X23279Y-25238D01*
X23335Y-25295D01*
X23392Y-25407D01*
X23448Y-25632D01*
X23448Y-25913D01*
X23392Y-26138D01*
X23335Y-26251D01*
X23279Y-26307D01*
X23167Y-26363D01*
X23054Y-26363D01*
X22942Y-26307D01*
X22885Y-26251D01*
X22829Y-26138D01*
X22773Y-25913D01*
X22773Y-25632D01*
X22829Y-25407D01*
X22885Y-25295D01*
X22942Y-25238D01*
X23054Y-25182D01*
X23898Y-25295D02*
X23954Y-25238D01*
X24066Y-25182D01*
X24348Y-25182D01*
X24460Y-25238D01*
X24516Y-25295D01*
X24573Y-25407D01*
X24573Y-25520D01*
X24516Y-25688D01*
X23842Y-26363D01*
X24573Y-26363D01*
X25641Y-25182D02*
X25079Y-25182D01*
X25023Y-25745D01*
X25079Y-25688D01*
X25191Y-25632D01*
X25473Y-25632D01*
X25585Y-25688D01*
X25641Y-25745D01*
X25698Y-25857D01*
X25698Y-26138D01*
X25641Y-26251D01*
X25585Y-26307D01*
X25473Y-26363D01*
X25191Y-26363D01*
X25079Y-26307D01*
X25023Y-26251D01*
X26147Y-25182D02*
X26147Y-25407D01*
X26597Y-25182D02*
X26597Y-25407D01*
X28341Y-26813D02*
X28285Y-26757D01*
X28172Y-26588D01*
X28116Y-26476D01*
X28060Y-26307D01*
X28003Y-26026D01*
X28003Y-25801D01*
X28060Y-25520D01*
X28116Y-25351D01*
X28172Y-25238D01*
X28285Y-25070D01*
X28341Y-25014D01*
X29297Y-25182D02*
X29072Y-25182D01*
X28960Y-25238D01*
X28903Y-25295D01*
X28791Y-25463D01*
X28735Y-25688D01*
X28735Y-26138D01*
X28791Y-26251D01*
X28847Y-26307D01*
X28960Y-26363D01*
X29185Y-26363D01*
X29297Y-26307D01*
X29353Y-26251D01*
X29410Y-26138D01*
X29410Y-25857D01*
X29353Y-25745D01*
X29297Y-25688D01*
X29185Y-25632D01*
X28960Y-25632D01*
X28847Y-25688D01*
X28791Y-25745D01*
X28735Y-25857D01*
X29803Y-25182D02*
X30591Y-25182D01*
X30084Y-26363D01*
X31941Y-26363D02*
X31941Y-25182D01*
X32447Y-26363D02*
X32447Y-25745D01*
X32390Y-25632D01*
X32278Y-25576D01*
X32109Y-25576D01*
X31997Y-25632D01*
X31941Y-25688D01*
X33178Y-26363D02*
X33065Y-26307D01*
X33009Y-26251D01*
X32953Y-26138D01*
X32953Y-25801D01*
X33009Y-25688D01*
X33065Y-25632D01*
X33178Y-25576D01*
X33347Y-25576D01*
X33459Y-25632D01*
X33515Y-25688D01*
X33572Y-25801D01*
X33572Y-26138D01*
X33515Y-26251D01*
X33459Y-26307D01*
X33347Y-26363D01*
X33178Y-26363D01*
X34246Y-26363D02*
X34134Y-26307D01*
X34078Y-26195D01*
X34078Y-25182D01*
X35146Y-26307D02*
X35034Y-26363D01*
X34809Y-26363D01*
X34696Y-26307D01*
X34640Y-26195D01*
X34640Y-25745D01*
X34696Y-25632D01*
X34809Y-25576D01*
X35034Y-25576D01*
X35146Y-25632D01*
X35203Y-25745D01*
X35203Y-25857D01*
X34640Y-25970D01*
X35653Y-26307D02*
X35765Y-26363D01*
X35990Y-26363D01*
X36102Y-26307D01*
X36159Y-26195D01*
X36159Y-26138D01*
X36102Y-26026D01*
X35990Y-25970D01*
X35821Y-25970D01*
X35709Y-25913D01*
X35653Y-25801D01*
X35653Y-25745D01*
X35709Y-25632D01*
X35821Y-25576D01*
X35990Y-25576D01*
X36102Y-25632D01*
X36552Y-26813D02*
X36609Y-26757D01*
X36721Y-26588D01*
X36777Y-26476D01*
X36834Y-26307D01*
X36890Y-26026D01*
X36890Y-25801D01*
X36834Y-25520D01*
X36777Y-25351D01*
X36721Y-25238D01*
X36609Y-25070D01*
X36552Y-25014D01*
G54D12*
X9949Y-27388D02*
G75*
G03X9949Y-27388I-175J0D01*
G74*
G01*
G54D13*
X11243Y-26741D02*
X11356Y-26741D01*
X11468Y-26798D01*
X11524Y-26854D01*
X11581Y-26966D01*
X11637Y-27191D01*
X11637Y-27472D01*
X11581Y-27697D01*
X11524Y-27810D01*
X11468Y-27866D01*
X11356Y-27922D01*
X11243Y-27922D01*
X11131Y-27866D01*
X11074Y-27810D01*
X11018Y-27697D01*
X10962Y-27472D01*
X10962Y-27191D01*
X11018Y-26966D01*
X11074Y-26854D01*
X11131Y-26798D01*
X11243Y-26741D01*
X12143Y-27810D02*
X12199Y-27866D01*
X12143Y-27922D01*
X12087Y-27866D01*
X12143Y-27810D01*
X12143Y-27922D01*
X12874Y-27247D02*
X12762Y-27191D01*
X12705Y-27135D01*
X12649Y-27023D01*
X12649Y-26966D01*
X12705Y-26854D01*
X12762Y-26798D01*
X12874Y-26741D01*
X13099Y-26741D01*
X13212Y-26798D01*
X13268Y-26854D01*
X13324Y-26966D01*
X13324Y-27023D01*
X13268Y-27135D01*
X13212Y-27191D01*
X13099Y-27247D01*
X12874Y-27247D01*
X12762Y-27304D01*
X12705Y-27360D01*
X12649Y-27472D01*
X12649Y-27697D01*
X12705Y-27810D01*
X12762Y-27866D01*
X12874Y-27922D01*
X13099Y-27922D01*
X13212Y-27866D01*
X13268Y-27810D01*
X13324Y-27697D01*
X13324Y-27472D01*
X13268Y-27360D01*
X13212Y-27304D01*
X13099Y-27247D01*
X13887Y-27922D02*
X14111Y-27922D01*
X14224Y-27866D01*
X14280Y-27810D01*
X14393Y-27641D01*
X14449Y-27416D01*
X14449Y-26966D01*
X14393Y-26854D01*
X14336Y-26798D01*
X14224Y-26741D01*
X13999Y-26741D01*
X13887Y-26798D01*
X13830Y-26854D01*
X13774Y-26966D01*
X13774Y-27247D01*
X13830Y-27360D01*
X13887Y-27416D01*
X13999Y-27472D01*
X14224Y-27472D01*
X14336Y-27416D01*
X14393Y-27360D01*
X14449Y-27247D01*
X14955Y-27922D02*
X14955Y-27135D01*
X14955Y-27247D02*
X15011Y-27191D01*
X15124Y-27135D01*
X15293Y-27135D01*
X15405Y-27191D01*
X15461Y-27304D01*
X15461Y-27922D01*
X15461Y-27304D02*
X15518Y-27191D01*
X15630Y-27135D01*
X15799Y-27135D01*
X15911Y-27191D01*
X15967Y-27304D01*
X15967Y-27922D01*
X16530Y-27922D02*
X16530Y-27135D01*
X16530Y-27247D02*
X16586Y-27191D01*
X16699Y-27135D01*
X16867Y-27135D01*
X16980Y-27191D01*
X17036Y-27304D01*
X17036Y-27922D01*
X17036Y-27304D02*
X17092Y-27191D01*
X17205Y-27135D01*
X17374Y-27135D01*
X17486Y-27191D01*
X17542Y-27304D01*
X17542Y-27922D01*
X19848Y-26685D02*
X18836Y-28204D01*
X21367Y-26741D02*
X21479Y-26741D01*
X21592Y-26798D01*
X21648Y-26854D01*
X21704Y-26966D01*
X21761Y-27191D01*
X21761Y-27472D01*
X21704Y-27697D01*
X21648Y-27810D01*
X21592Y-27866D01*
X21479Y-27922D01*
X21367Y-27922D01*
X21254Y-27866D01*
X21198Y-27810D01*
X21142Y-27697D01*
X21086Y-27472D01*
X21086Y-27191D01*
X21142Y-26966D01*
X21198Y-26854D01*
X21254Y-26798D01*
X21367Y-26741D01*
X22267Y-27810D02*
X22323Y-27866D01*
X22267Y-27922D01*
X22210Y-27866D01*
X22267Y-27810D01*
X22267Y-27922D01*
X23054Y-26741D02*
X23167Y-26741D01*
X23279Y-26798D01*
X23335Y-26854D01*
X23392Y-26966D01*
X23448Y-27191D01*
X23448Y-27472D01*
X23392Y-27697D01*
X23335Y-27810D01*
X23279Y-27866D01*
X23167Y-27922D01*
X23054Y-27922D01*
X22942Y-27866D01*
X22885Y-27810D01*
X22829Y-27697D01*
X22773Y-27472D01*
X22773Y-27191D01*
X22829Y-26966D01*
X22885Y-26854D01*
X22942Y-26798D01*
X23054Y-26741D01*
X23842Y-26741D02*
X24573Y-26741D01*
X24179Y-27191D01*
X24348Y-27191D01*
X24460Y-27247D01*
X24516Y-27304D01*
X24573Y-27416D01*
X24573Y-27697D01*
X24516Y-27810D01*
X24460Y-27866D01*
X24348Y-27922D01*
X24010Y-27922D01*
X23898Y-27866D01*
X23842Y-27810D01*
X25641Y-26741D02*
X25079Y-26741D01*
X25023Y-27304D01*
X25079Y-27247D01*
X25191Y-27191D01*
X25473Y-27191D01*
X25585Y-27247D01*
X25641Y-27304D01*
X25698Y-27416D01*
X25698Y-27697D01*
X25641Y-27810D01*
X25585Y-27866D01*
X25473Y-27922D01*
X25191Y-27922D01*
X25079Y-27866D01*
X25023Y-27810D01*
X26147Y-26741D02*
X26147Y-26966D01*
X26597Y-26741D02*
X26597Y-26966D01*
X28341Y-28372D02*
X28285Y-28316D01*
X28172Y-28147D01*
X28116Y-28035D01*
X28060Y-27866D01*
X28003Y-27585D01*
X28003Y-27360D01*
X28060Y-27079D01*
X28116Y-26910D01*
X28172Y-26798D01*
X28285Y-26629D01*
X28341Y-26573D01*
X28735Y-26854D02*
X28791Y-26798D01*
X28903Y-26741D01*
X29185Y-26741D01*
X29297Y-26798D01*
X29353Y-26854D01*
X29410Y-26966D01*
X29410Y-27079D01*
X29353Y-27247D01*
X28678Y-27922D01*
X29410Y-27922D01*
X30816Y-27922D02*
X30816Y-26741D01*
X31322Y-27922D02*
X31322Y-27304D01*
X31266Y-27191D01*
X31153Y-27135D01*
X30984Y-27135D01*
X30872Y-27191D01*
X30816Y-27247D01*
X32053Y-27922D02*
X31941Y-27866D01*
X31884Y-27810D01*
X31828Y-27697D01*
X31828Y-27360D01*
X31884Y-27247D01*
X31941Y-27191D01*
X32053Y-27135D01*
X32222Y-27135D01*
X32334Y-27191D01*
X32390Y-27247D01*
X32447Y-27360D01*
X32447Y-27697D01*
X32390Y-27810D01*
X32334Y-27866D01*
X32222Y-27922D01*
X32053Y-27922D01*
X33122Y-27922D02*
X33009Y-27866D01*
X32953Y-27754D01*
X32953Y-26741D01*
X34021Y-27866D02*
X33909Y-27922D01*
X33684Y-27922D01*
X33572Y-27866D01*
X33515Y-27754D01*
X33515Y-27304D01*
X33572Y-27191D01*
X33684Y-27135D01*
X33909Y-27135D01*
X34021Y-27191D01*
X34078Y-27304D01*
X34078Y-27416D01*
X33515Y-27529D01*
X34528Y-27866D02*
X34640Y-27922D01*
X34865Y-27922D01*
X34978Y-27866D01*
X35034Y-27754D01*
X35034Y-27697D01*
X34978Y-27585D01*
X34865Y-27529D01*
X34696Y-27529D01*
X34584Y-27472D01*
X34528Y-27360D01*
X34528Y-27304D01*
X34584Y-27191D01*
X34696Y-27135D01*
X34865Y-27135D01*
X34978Y-27191D01*
X35428Y-28372D02*
X35484Y-28316D01*
X35596Y-28147D01*
X35653Y-28035D01*
X35709Y-27866D01*
X35765Y-27585D01*
X35765Y-27360D01*
X35709Y-27079D01*
X35653Y-26910D01*
X35596Y-26798D01*
X35484Y-26629D01*
X35428Y-26573D01*
X9749Y-28747D02*
X9749Y-29147D01*
X9549Y-28947D02*
X9949Y-28947D01*
X11637Y-29481D02*
X10962Y-29481D01*
X11299Y-29481D02*
X11299Y-28300D01*
X11187Y-28469D01*
X11074Y-28582D01*
X10962Y-28638D01*
X12143Y-29369D02*
X12199Y-29425D01*
X12143Y-29481D01*
X12087Y-29425D01*
X12143Y-29369D01*
X12143Y-29481D01*
X12930Y-28300D02*
X13043Y-28300D01*
X13155Y-28357D01*
X13212Y-28413D01*
X13268Y-28525D01*
X13324Y-28750D01*
X13324Y-29032D01*
X13268Y-29256D01*
X13212Y-29369D01*
X13155Y-29425D01*
X13043Y-29481D01*
X12930Y-29481D01*
X12818Y-29425D01*
X12762Y-29369D01*
X12705Y-29256D01*
X12649Y-29032D01*
X12649Y-28750D01*
X12705Y-28525D01*
X12762Y-28413D01*
X12818Y-28357D01*
X12930Y-28300D01*
X13774Y-28413D02*
X13830Y-28357D01*
X13943Y-28300D01*
X14224Y-28300D01*
X14336Y-28357D01*
X14393Y-28413D01*
X14449Y-28525D01*
X14449Y-28638D01*
X14393Y-28807D01*
X13718Y-29481D01*
X14449Y-29481D01*
X14955Y-29481D02*
X14955Y-28694D01*
X14955Y-28807D02*
X15011Y-28750D01*
X15124Y-28694D01*
X15293Y-28694D01*
X15405Y-28750D01*
X15461Y-28863D01*
X15461Y-29481D01*
X15461Y-28863D02*
X15518Y-28750D01*
X15630Y-28694D01*
X15799Y-28694D01*
X15911Y-28750D01*
X15967Y-28863D01*
X15967Y-29481D01*
X16530Y-29481D02*
X16530Y-28694D01*
X16530Y-28807D02*
X16586Y-28750D01*
X16699Y-28694D01*
X16867Y-28694D01*
X16980Y-28750D01*
X17036Y-28863D01*
X17036Y-29481D01*
X17036Y-28863D02*
X17092Y-28750D01*
X17205Y-28694D01*
X17374Y-28694D01*
X17486Y-28750D01*
X17542Y-28863D01*
X17542Y-29481D01*
X19848Y-28244D02*
X18836Y-29763D01*
X21367Y-28300D02*
X21479Y-28300D01*
X21592Y-28357D01*
X21648Y-28413D01*
X21704Y-28525D01*
X21761Y-28750D01*
X21761Y-29032D01*
X21704Y-29256D01*
X21648Y-29369D01*
X21592Y-29425D01*
X21479Y-29481D01*
X21367Y-29481D01*
X21254Y-29425D01*
X21198Y-29369D01*
X21142Y-29256D01*
X21086Y-29032D01*
X21086Y-28750D01*
X21142Y-28525D01*
X21198Y-28413D01*
X21254Y-28357D01*
X21367Y-28300D01*
X22267Y-29369D02*
X22323Y-29425D01*
X22267Y-29481D01*
X22210Y-29425D01*
X22267Y-29369D01*
X22267Y-29481D01*
X23054Y-28300D02*
X23167Y-28300D01*
X23279Y-28357D01*
X23335Y-28413D01*
X23392Y-28525D01*
X23448Y-28750D01*
X23448Y-29032D01*
X23392Y-29256D01*
X23335Y-29369D01*
X23279Y-29425D01*
X23167Y-29481D01*
X23054Y-29481D01*
X22942Y-29425D01*
X22885Y-29369D01*
X22829Y-29256D01*
X22773Y-29032D01*
X22773Y-28750D01*
X22829Y-28525D01*
X22885Y-28413D01*
X22942Y-28357D01*
X23054Y-28300D01*
X24460Y-28694D02*
X24460Y-29481D01*
X24179Y-28244D02*
X23898Y-29088D01*
X24629Y-29088D01*
X25304Y-28300D02*
X25416Y-28300D01*
X25529Y-28357D01*
X25585Y-28413D01*
X25641Y-28525D01*
X25698Y-28750D01*
X25698Y-29032D01*
X25641Y-29256D01*
X25585Y-29369D01*
X25529Y-29425D01*
X25416Y-29481D01*
X25304Y-29481D01*
X25191Y-29425D01*
X25135Y-29369D01*
X25079Y-29256D01*
X25023Y-29032D01*
X25023Y-28750D01*
X25079Y-28525D01*
X25135Y-28413D01*
X25191Y-28357D01*
X25304Y-28300D01*
X26147Y-28300D02*
X26147Y-28525D01*
X26597Y-28300D02*
X26597Y-28525D01*
X28341Y-29931D02*
X28285Y-29875D01*
X28172Y-29706D01*
X28116Y-29594D01*
X28060Y-29425D01*
X28003Y-29144D01*
X28003Y-28919D01*
X28060Y-28638D01*
X28116Y-28469D01*
X28172Y-28357D01*
X28285Y-28188D01*
X28341Y-28132D01*
X28678Y-28300D02*
X29410Y-28300D01*
X29016Y-28750D01*
X29185Y-28750D01*
X29297Y-28807D01*
X29353Y-28863D01*
X29410Y-28975D01*
X29410Y-29256D01*
X29353Y-29369D01*
X29297Y-29425D01*
X29185Y-29481D01*
X28847Y-29481D01*
X28735Y-29425D01*
X28678Y-29369D01*
X29803Y-28300D02*
X30591Y-28300D01*
X30084Y-29481D01*
X31941Y-29481D02*
X31941Y-28300D01*
X32447Y-29481D02*
X32447Y-28863D01*
X32390Y-28750D01*
X32278Y-28694D01*
X32109Y-28694D01*
X31997Y-28750D01*
X31941Y-28807D01*
X33178Y-29481D02*
X33065Y-29425D01*
X33009Y-29369D01*
X32953Y-29256D01*
X32953Y-28919D01*
X33009Y-28807D01*
X33065Y-28750D01*
X33178Y-28694D01*
X33347Y-28694D01*
X33459Y-28750D01*
X33515Y-28807D01*
X33572Y-28919D01*
X33572Y-29256D01*
X33515Y-29369D01*
X33459Y-29425D01*
X33347Y-29481D01*
X33178Y-29481D01*
X34246Y-29481D02*
X34134Y-29425D01*
X34078Y-29313D01*
X34078Y-28300D01*
X35146Y-29425D02*
X35034Y-29481D01*
X34809Y-29481D01*
X34696Y-29425D01*
X34640Y-29313D01*
X34640Y-28863D01*
X34696Y-28750D01*
X34809Y-28694D01*
X35034Y-28694D01*
X35146Y-28750D01*
X35203Y-28863D01*
X35203Y-28975D01*
X34640Y-29088D01*
X35653Y-29425D02*
X35765Y-29481D01*
X35990Y-29481D01*
X36102Y-29425D01*
X36159Y-29313D01*
X36159Y-29256D01*
X36102Y-29144D01*
X35990Y-29088D01*
X35821Y-29088D01*
X35709Y-29032D01*
X35653Y-28919D01*
X35653Y-28863D01*
X35709Y-28750D01*
X35821Y-28694D01*
X35990Y-28694D01*
X36102Y-28750D01*
X36552Y-29931D02*
X36609Y-29875D01*
X36721Y-29706D01*
X36777Y-29594D01*
X36834Y-29425D01*
X36890Y-29144D01*
X36890Y-28919D01*
X36834Y-28638D01*
X36777Y-28469D01*
X36721Y-28357D01*
X36609Y-28188D01*
X36552Y-28132D01*
G54D12*
G54D13*
X10962Y-29972D02*
X11018Y-29916D01*
X11131Y-29859D01*
X11412Y-29859D01*
X11524Y-29916D01*
X11581Y-29972D01*
X11637Y-30084D01*
X11637Y-30197D01*
X11581Y-30366D01*
X10906Y-31041D01*
X11637Y-31041D01*
X12143Y-30928D02*
X12199Y-30984D01*
X12143Y-31041D01*
X12087Y-30984D01*
X12143Y-30928D01*
X12143Y-31041D01*
X13268Y-29859D02*
X12705Y-29859D01*
X12649Y-30422D01*
X12705Y-30366D01*
X12818Y-30309D01*
X13099Y-30309D01*
X13212Y-30366D01*
X13268Y-30422D01*
X13324Y-30534D01*
X13324Y-30816D01*
X13268Y-30928D01*
X13212Y-30984D01*
X13099Y-31041D01*
X12818Y-31041D01*
X12705Y-30984D01*
X12649Y-30928D01*
X14336Y-30253D02*
X14336Y-31041D01*
X14055Y-29803D02*
X13774Y-30647D01*
X14505Y-30647D01*
X14955Y-31041D02*
X14955Y-30253D01*
X14955Y-30366D02*
X15011Y-30309D01*
X15124Y-30253D01*
X15293Y-30253D01*
X15405Y-30309D01*
X15461Y-30422D01*
X15461Y-31041D01*
X15461Y-30422D02*
X15518Y-30309D01*
X15630Y-30253D01*
X15799Y-30253D01*
X15911Y-30309D01*
X15967Y-30422D01*
X15967Y-31041D01*
X16530Y-31041D02*
X16530Y-30253D01*
X16530Y-30366D02*
X16586Y-30309D01*
X16699Y-30253D01*
X16867Y-30253D01*
X16980Y-30309D01*
X17036Y-30422D01*
X17036Y-31041D01*
X17036Y-30422D02*
X17092Y-30309D01*
X17205Y-30253D01*
X17374Y-30253D01*
X17486Y-30309D01*
X17542Y-30422D01*
X17542Y-31041D01*
X19848Y-29803D02*
X18836Y-31322D01*
X21367Y-29859D02*
X21479Y-29859D01*
X21592Y-29916D01*
X21648Y-29972D01*
X21704Y-30084D01*
X21761Y-30309D01*
X21761Y-30591D01*
X21704Y-30816D01*
X21648Y-30928D01*
X21592Y-30984D01*
X21479Y-31041D01*
X21367Y-31041D01*
X21254Y-30984D01*
X21198Y-30928D01*
X21142Y-30816D01*
X21086Y-30591D01*
X21086Y-30309D01*
X21142Y-30084D01*
X21198Y-29972D01*
X21254Y-29916D01*
X21367Y-29859D01*
X22267Y-30928D02*
X22323Y-30984D01*
X22267Y-31041D01*
X22210Y-30984D01*
X22267Y-30928D01*
X22267Y-31041D01*
X23448Y-31041D02*
X22773Y-31041D01*
X23110Y-31041D02*
X23110Y-29859D01*
X22998Y-30028D01*
X22885Y-30141D01*
X22773Y-30197D01*
X24179Y-29859D02*
X24291Y-29859D01*
X24404Y-29916D01*
X24460Y-29972D01*
X24516Y-30084D01*
X24573Y-30309D01*
X24573Y-30591D01*
X24516Y-30816D01*
X24460Y-30928D01*
X24404Y-30984D01*
X24291Y-31041D01*
X24179Y-31041D01*
X24066Y-30984D01*
X24010Y-30928D01*
X23954Y-30816D01*
X23898Y-30591D01*
X23898Y-30309D01*
X23954Y-30084D01*
X24010Y-29972D01*
X24066Y-29916D01*
X24179Y-29859D01*
X25304Y-29859D02*
X25416Y-29859D01*
X25529Y-29916D01*
X25585Y-29972D01*
X25641Y-30084D01*
X25698Y-30309D01*
X25698Y-30591D01*
X25641Y-30816D01*
X25585Y-30928D01*
X25529Y-30984D01*
X25416Y-31041D01*
X25304Y-31041D01*
X25191Y-30984D01*
X25135Y-30928D01*
X25079Y-30816D01*
X25023Y-30591D01*
X25023Y-30309D01*
X25079Y-30084D01*
X25135Y-29972D01*
X25191Y-29916D01*
X25304Y-29859D01*
X26147Y-29859D02*
X26147Y-30084D01*
X26597Y-29859D02*
X26597Y-30084D01*
X28341Y-31490D02*
X28285Y-31434D01*
X28172Y-31265D01*
X28116Y-31153D01*
X28060Y-30984D01*
X28003Y-30703D01*
X28003Y-30478D01*
X28060Y-30197D01*
X28116Y-30028D01*
X28172Y-29916D01*
X28285Y-29747D01*
X28341Y-29691D01*
X29410Y-31041D02*
X28735Y-31041D01*
X29072Y-31041D02*
X29072Y-29859D01*
X28960Y-30028D01*
X28847Y-30141D01*
X28735Y-30197D01*
X30816Y-31041D02*
X30816Y-29859D01*
X31322Y-31041D02*
X31322Y-30422D01*
X31266Y-30309D01*
X31153Y-30253D01*
X30984Y-30253D01*
X30872Y-30309D01*
X30816Y-30366D01*
X32053Y-31041D02*
X31941Y-30984D01*
X31884Y-30928D01*
X31828Y-30816D01*
X31828Y-30478D01*
X31884Y-30366D01*
X31941Y-30309D01*
X32053Y-30253D01*
X32222Y-30253D01*
X32334Y-30309D01*
X32390Y-30366D01*
X32447Y-30478D01*
X32447Y-30816D01*
X32390Y-30928D01*
X32334Y-30984D01*
X32222Y-31041D01*
X32053Y-31041D01*
X33122Y-31041D02*
X33009Y-30984D01*
X32953Y-30872D01*
X32953Y-29859D01*
X34021Y-30984D02*
X33909Y-31041D01*
X33684Y-31041D01*
X33572Y-30984D01*
X33515Y-30872D01*
X33515Y-30422D01*
X33572Y-30309D01*
X33684Y-30253D01*
X33909Y-30253D01*
X34021Y-30309D01*
X34078Y-30422D01*
X34078Y-30534D01*
X33515Y-30647D01*
X34471Y-31490D02*
X34528Y-31434D01*
X34640Y-31265D01*
X34696Y-31153D01*
X34753Y-30984D01*
X34809Y-30703D01*
X34809Y-30478D01*
X34753Y-30197D01*
X34696Y-30028D01*
X34640Y-29916D01*
X34528Y-29747D01*
X34471Y-29691D01*
M02*
