%FSLAX34Y34*%
G04 Gerber Fmt 3.4, Leading zero omitted, Abs format*
G04 (created by PCBNEW (2014-05-21 BZR 4875)-product) date Wednesday 28 May 2014 03:26:22 PM IST*
%MOIN*%
G01*
G70*
G90*
G04 APERTURE LIST*
%ADD10C,0.006000*%
%ADD11C,0.010000*%
%ADD12R,0.100000X0.260000*%
%ADD13R,0.260000X0.260000*%
%ADD14R,0.042000X0.056000*%
%ADD15R,0.040000X0.080000*%
%ADD16R,0.080000X0.040000*%
%ADD17R,0.059000X0.051200*%
%ADD18R,0.023600X0.078700*%
G04 APERTURE END LIST*
G54D10*
G54D11*
X10000Y-10000D02*
X35000Y-10000D01*
X35000Y-22000D02*
X10000Y-22000D01*
X35000Y-10000D02*
X35000Y-22000D01*
X10000Y-22000D02*
X10000Y-10000D01*
G54D12*
X30725Y-15350D03*
X22525Y-15350D03*
G54D13*
X26625Y-15350D03*
G54D14*
X15850Y-13200D03*
X15050Y-13200D03*
G54D15*
X17450Y-10850D03*
X16450Y-12150D03*
X15450Y-10850D03*
X14450Y-12150D03*
G54D16*
X10800Y-14500D03*
X12100Y-15500D03*
X10800Y-16500D03*
X12100Y-17500D03*
G54D15*
X17450Y-19850D03*
X16450Y-21150D03*
X15450Y-19850D03*
X14450Y-21150D03*
G54D16*
X19800Y-14500D03*
X21100Y-15500D03*
X19800Y-16500D03*
X21100Y-17500D03*
G54D17*
X18400Y-17950D03*
X18400Y-18700D03*
G54D18*
X17475Y-17906D03*
X16975Y-17906D03*
X16475Y-17906D03*
X15975Y-17906D03*
X15475Y-17906D03*
X14975Y-17906D03*
X14475Y-17906D03*
X13975Y-17906D03*
X13975Y-14244D03*
X14475Y-14244D03*
X14975Y-14244D03*
X15475Y-14244D03*
X15975Y-14244D03*
X16475Y-14244D03*
X16975Y-14244D03*
X17475Y-14244D03*
M02*
