%FSLAX34Y34*%
G04 Gerber Fmt 3.4, Leading zero omitted, Abs format*
G04 (created by PCBNEW (2014-05-21 BZR 4875)-product) date Wednesday 28 May 2014 03:26:22 PM IST*
%MOIN*%
G01*
G70*
G90*
G04 APERTURE LIST*
%ADD10C,0.006000*%
%ADD11C,0.010000*%
%ADD12C,0.040000*%
%ADD13C,0.060000*%
%ADD14R,0.030000X0.040000*%
%ADD15R,0.060000X0.060000*%
%ADD16R,0.100000X0.260000*%
%ADD17R,0.260000X0.260000*%
%ADD18R,0.042000X0.056000*%
%ADD19R,0.040000X0.080000*%
%ADD20R,0.080000X0.040000*%
%ADD21R,0.059000X0.051200*%
%ADD22C,0.120000*%
%ADD23C,0.045000*%
%ADD24R,0.023600X0.078700*%
%ADD25C,0.035000*%
%ADD26C,0.008000*%
G04 APERTURE END LIST*
G54D10*
G54D11*
X10000Y-10000D02*
X35000Y-10000D01*
X35000Y-22000D02*
X10000Y-22000D01*
X35000Y-10000D02*
X35000Y-22000D01*
X10000Y-22000D02*
X10000Y-10000D01*
G54D12*
X17350Y-21625D03*
X15875Y-18700D03*
G54D13*
X25325Y-19600D03*
X24325Y-19600D03*
X23325Y-19600D03*
X22325Y-19600D03*
G54D14*
X19225Y-17125D03*
X19225Y-15875D03*
G54D12*
X17475Y-18700D03*
G54D14*
X18825Y-15875D03*
X18825Y-17125D03*
G54D15*
X26325Y-19600D03*
G54D13*
X27325Y-19600D03*
G54D12*
X26325Y-21100D03*
G54D13*
X33900Y-20000D03*
X33900Y-19000D03*
G54D15*
X33900Y-18000D03*
G54D13*
X33900Y-12000D03*
X33900Y-13000D03*
X33900Y-14000D03*
X33900Y-15000D03*
X33900Y-16000D03*
X33900Y-17000D03*
X34600Y-12000D03*
X34600Y-13000D03*
X34600Y-14000D03*
X21325Y-19600D03*
X32325Y-12000D03*
G54D15*
X32325Y-13000D03*
G54D16*
X30725Y-15350D03*
X22525Y-15350D03*
G54D17*
X26625Y-15350D03*
G54D18*
X15850Y-13200D03*
X15050Y-13200D03*
G54D13*
X20325Y-21100D03*
X21325Y-21100D03*
X22325Y-21100D03*
G54D15*
X23325Y-21100D03*
X24325Y-21100D03*
G54D13*
X25325Y-21100D03*
X27325Y-21100D03*
X28325Y-21100D03*
X29325Y-21100D03*
X30325Y-21100D03*
X31325Y-21100D03*
X32325Y-21100D03*
X31125Y-12000D03*
G54D15*
X31125Y-13000D03*
X32325Y-19600D03*
G54D13*
X32325Y-18600D03*
X32325Y-17600D03*
X32325Y-16600D03*
X32325Y-15600D03*
X32325Y-14600D03*
X18575Y-11800D03*
X18575Y-10800D03*
X19575Y-11800D03*
X19575Y-10800D03*
X20575Y-11800D03*
G54D15*
X20575Y-10800D03*
G54D19*
X17450Y-10850D03*
X16450Y-12150D03*
X15450Y-10850D03*
X14450Y-12150D03*
G54D20*
X10800Y-14500D03*
X12100Y-15500D03*
X10800Y-16500D03*
X12100Y-17500D03*
G54D19*
X17450Y-19850D03*
X16450Y-21150D03*
X15450Y-19850D03*
X14450Y-21150D03*
G54D20*
X19800Y-14500D03*
X21100Y-15500D03*
X19800Y-16500D03*
X21100Y-17500D03*
G54D21*
X18400Y-17950D03*
X18400Y-18700D03*
G54D22*
X18725Y-21250D03*
G54D23*
X11600Y-19650D03*
X14750Y-19650D03*
G54D24*
X17475Y-17906D03*
X16975Y-17906D03*
X16475Y-17906D03*
X15975Y-17906D03*
X15475Y-17906D03*
X14975Y-17906D03*
X14475Y-17906D03*
X13975Y-17906D03*
X13975Y-14244D03*
X14475Y-14244D03*
X14975Y-14244D03*
X15475Y-14244D03*
X15975Y-14244D03*
X16475Y-14244D03*
X16975Y-14244D03*
X17475Y-14244D03*
G54D13*
X32325Y-10800D03*
X31125Y-10800D03*
G54D25*
X28500Y-11225D03*
X18715Y-13550D03*
X30905Y-18150D03*
X12740Y-16500D03*
X10535Y-12510D03*
X11600Y-12510D03*
X17200Y-16980D03*
X18925Y-18775D03*
X33010Y-20000D03*
X31500Y-17450D03*
X29575Y-20100D03*
X31775Y-15100D03*
X34510Y-15000D03*
X20250Y-12900D03*
X33825Y-11225D03*
X33825Y-10775D03*
X19805Y-12895D03*
X19455Y-13925D03*
X26625Y-11560D03*
X18075Y-14450D03*
X26900Y-20225D03*
X12565Y-14425D03*
X11410Y-16000D03*
X20975Y-18250D03*
X18000Y-13880D03*
X18380Y-15220D03*
X18000Y-13200D03*
X21575Y-17000D03*
X14910Y-15380D03*
X13660Y-12130D03*
X18905Y-14930D03*
X20075Y-17750D03*
X16450Y-20470D03*
X20075Y-18250D03*
X14450Y-20480D03*
X28700Y-20025D03*
X17070Y-14930D03*
X17070Y-15700D03*
X22650Y-17280D03*
X16200Y-17175D03*
X16875Y-16500D03*
X22205Y-17275D03*
X13325Y-18790D03*
X15450Y-21410D03*
X28125Y-19700D03*
X21850Y-20275D03*
X22675Y-13700D03*
X12100Y-17010D03*
X16140Y-14910D03*
X11250Y-17500D03*
X27770Y-13700D03*
X18510Y-19600D03*
X30920Y-17435D03*
G54D26*
X28500Y-11225D02*
X22595Y-11225D01*
X22595Y-11225D02*
X20270Y-13550D01*
X20270Y-13550D02*
X18715Y-13550D01*
X11095Y-19120D02*
X10800Y-18825D01*
X11785Y-19120D02*
X11095Y-19120D01*
X12180Y-19515D02*
X11785Y-19120D01*
X14250Y-19515D02*
X12180Y-19515D01*
X14515Y-19250D02*
X14250Y-19515D01*
X16580Y-10180D02*
X17955Y-10180D01*
X17955Y-10180D02*
X18575Y-10800D01*
X15890Y-19250D02*
X14515Y-19250D01*
X10800Y-16500D02*
X10800Y-15180D01*
X11415Y-12695D02*
X11600Y-12510D01*
X11415Y-14820D02*
X11415Y-12695D01*
X11230Y-15005D02*
X11415Y-14820D01*
X10975Y-15005D02*
X11230Y-15005D01*
X10800Y-15180D02*
X10975Y-15005D01*
X10535Y-12510D02*
X10535Y-11850D01*
X10535Y-11850D02*
X11635Y-10750D01*
X19420Y-20250D02*
X18150Y-20250D01*
X17900Y-20500D02*
X17140Y-20500D01*
X17140Y-20500D02*
X15890Y-19250D01*
X21325Y-21525D02*
X21175Y-21675D01*
X21175Y-21675D02*
X19805Y-21675D01*
X18150Y-20250D02*
X17900Y-20500D01*
X19650Y-20480D02*
X19420Y-20250D01*
X19805Y-21675D02*
X19650Y-21520D01*
X19650Y-21520D02*
X19650Y-20480D01*
X21325Y-21100D02*
X21325Y-21525D01*
X10800Y-18825D02*
X10800Y-16500D01*
X12740Y-16500D02*
X12620Y-16500D01*
X32325Y-17600D02*
X32324Y-17600D01*
X16975Y-17475D02*
X17200Y-17250D01*
X18400Y-17950D02*
X18400Y-17350D01*
X16681Y-16981D02*
X16200Y-16500D01*
X17200Y-16981D02*
X16681Y-16981D01*
X12620Y-16500D02*
X10700Y-16500D01*
X16200Y-16500D02*
X12620Y-16500D01*
X15450Y-10750D02*
X11635Y-10750D01*
X18400Y-17350D02*
X18031Y-16981D01*
X16975Y-17906D02*
X16975Y-17475D01*
X17200Y-17250D02*
X17200Y-16981D01*
X18031Y-16981D02*
X17200Y-16981D01*
X31775Y-18150D02*
X32325Y-17600D01*
X30905Y-18150D02*
X31775Y-18150D01*
X17200Y-16980D02*
X17200Y-17250D01*
X15450Y-10850D02*
X15910Y-10850D01*
X15910Y-10850D02*
X16580Y-10180D01*
X18925Y-18436D02*
X18925Y-18775D01*
X18400Y-17950D02*
X18439Y-17950D01*
X18439Y-17950D02*
X18925Y-18436D01*
X30905Y-18150D02*
X30905Y-19022D01*
X30905Y-19022D02*
X30647Y-19280D01*
X30647Y-19280D02*
X27644Y-19280D01*
X27644Y-19280D02*
X27325Y-19600D01*
X29575Y-20100D02*
X31850Y-20100D01*
X31850Y-20100D02*
X32000Y-20250D01*
X32760Y-20250D02*
X32000Y-20250D01*
X32760Y-20250D02*
X33010Y-20000D01*
X31775Y-17175D02*
X31500Y-17450D01*
X31775Y-17175D02*
X31775Y-15100D01*
X31500Y-17450D02*
X31775Y-17175D01*
X34600Y-13000D02*
X33900Y-13000D01*
X33900Y-15000D02*
X34510Y-15000D01*
X33900Y-14000D02*
X34600Y-14000D01*
X33825Y-11225D02*
X33125Y-11225D01*
X33125Y-11225D02*
X32825Y-11525D01*
X30525Y-11525D02*
X32825Y-11525D01*
X20660Y-12900D02*
X20250Y-12900D01*
X29850Y-10850D02*
X22710Y-10850D01*
X22710Y-10850D02*
X20660Y-12900D01*
X30525Y-11525D02*
X29850Y-10850D01*
X33825Y-10775D02*
X33200Y-10775D01*
X33200Y-10775D02*
X32650Y-11325D01*
X29925Y-10650D02*
X22580Y-10650D01*
X30600Y-11325D02*
X29925Y-10650D01*
X32650Y-11325D02*
X30600Y-11325D01*
X22580Y-10650D02*
X20650Y-12580D01*
X20120Y-12580D02*
X19805Y-12895D01*
X20650Y-12580D02*
X20120Y-12580D01*
X26625Y-11560D02*
X22515Y-11560D01*
X20150Y-13925D02*
X22515Y-11560D01*
X19455Y-13925D02*
X20150Y-13925D01*
X18655Y-12895D02*
X19270Y-12895D01*
X18345Y-13205D02*
X18345Y-14180D01*
X18075Y-14450D02*
X18345Y-14180D01*
X18655Y-12895D02*
X18345Y-13205D01*
X20075Y-11300D02*
X19575Y-10800D01*
X20075Y-12090D02*
X20075Y-11300D01*
X19270Y-12895D02*
X20075Y-12090D01*
X26900Y-20225D02*
X22300Y-20225D01*
X22300Y-20225D02*
X22050Y-19975D01*
X20325Y-21100D02*
X20325Y-20450D01*
X21600Y-19975D02*
X22050Y-19975D01*
X21350Y-20225D02*
X21600Y-19975D01*
X20550Y-20225D02*
X21350Y-20225D01*
X20325Y-20450D02*
X20550Y-20225D01*
X12565Y-14425D02*
X11965Y-15025D01*
X11965Y-15025D02*
X11610Y-15025D01*
X11610Y-15025D02*
X11410Y-15225D01*
X11410Y-15225D02*
X11410Y-16000D01*
X19900Y-18600D02*
X20625Y-18600D01*
X20625Y-18600D02*
X20975Y-18250D01*
X18000Y-13880D02*
X18000Y-13200D01*
X20600Y-15930D02*
X19890Y-15220D01*
X20600Y-16775D02*
X20600Y-15930D01*
X19890Y-15220D02*
X18380Y-15220D01*
X19700Y-17675D02*
X20600Y-16775D01*
X19700Y-18400D02*
X19700Y-17675D01*
X19900Y-18600D02*
X19700Y-18400D01*
X18385Y-12440D02*
X18935Y-12440D01*
X18935Y-12440D02*
X19575Y-11800D01*
X18385Y-12440D02*
X18000Y-12825D01*
X18000Y-12825D02*
X18000Y-13200D01*
X21575Y-16125D02*
X21575Y-17000D01*
X13660Y-15080D02*
X13960Y-15380D01*
X13960Y-15380D02*
X14910Y-15380D01*
X13660Y-12130D02*
X13660Y-15080D01*
X21735Y-15965D02*
X21575Y-16125D01*
X21735Y-15135D02*
X21735Y-15965D01*
X21530Y-14930D02*
X21735Y-15135D01*
X18905Y-14930D02*
X21530Y-14930D01*
X20075Y-17750D02*
X20075Y-17500D01*
X20075Y-17500D02*
X21100Y-16475D01*
X21100Y-16475D02*
X21100Y-15500D01*
X16450Y-20470D02*
X16450Y-21150D01*
X17475Y-17906D02*
X17475Y-18700D01*
X30375Y-12300D02*
X30375Y-13475D01*
X30375Y-13475D02*
X30725Y-13825D01*
X30725Y-15350D02*
X30725Y-13825D01*
X31125Y-12000D02*
X30675Y-12000D01*
X30675Y-12000D02*
X30375Y-12300D01*
X22840Y-19025D02*
X30275Y-19025D01*
X30570Y-17925D02*
X30720Y-17775D01*
X30275Y-19025D02*
X30570Y-18730D01*
X22650Y-18835D02*
X22840Y-19025D01*
X30570Y-18730D02*
X30570Y-17925D01*
X30720Y-17775D02*
X31725Y-17775D01*
X32880Y-16870D02*
X32880Y-14080D01*
X31725Y-17775D02*
X31850Y-17650D01*
X31850Y-17650D02*
X31850Y-17405D01*
X31850Y-17405D02*
X32155Y-17100D01*
X32625Y-13825D02*
X30725Y-13825D01*
X32155Y-17100D02*
X32650Y-17100D01*
X32650Y-17100D02*
X32880Y-16870D01*
X32880Y-14080D02*
X32625Y-13825D01*
X22525Y-15350D02*
X22525Y-16525D01*
X22525Y-16525D02*
X22975Y-16975D01*
X22650Y-17775D02*
X22650Y-18835D01*
X22975Y-17450D02*
X22650Y-17775D01*
X22975Y-16975D02*
X22975Y-17450D01*
X19800Y-14500D02*
X21675Y-14500D01*
X21675Y-14500D02*
X22525Y-15350D01*
X19800Y-14500D02*
X18570Y-14500D01*
X16475Y-14985D02*
X16475Y-14244D01*
X16800Y-15310D02*
X16475Y-14985D01*
X17760Y-15310D02*
X16800Y-15310D01*
X18570Y-14500D02*
X17760Y-15310D01*
X16475Y-14244D02*
X16475Y-13425D01*
X16250Y-13200D02*
X15850Y-13200D01*
X16475Y-13425D02*
X16250Y-13200D01*
X22460Y-19025D02*
X22650Y-18835D01*
X19990Y-19975D02*
X20940Y-19025D01*
X18150Y-19975D02*
X19990Y-19975D01*
X18025Y-19850D02*
X18150Y-19975D01*
X20940Y-19025D02*
X22460Y-19025D01*
X17450Y-19850D02*
X18025Y-19850D01*
X20075Y-18250D02*
X20350Y-18250D01*
X20350Y-18250D02*
X21100Y-17500D01*
X21100Y-17500D02*
X20900Y-17500D01*
X15975Y-17906D02*
X15975Y-18335D01*
X15875Y-18435D02*
X15875Y-18700D01*
X15975Y-18335D02*
X15875Y-18435D01*
X14450Y-21150D02*
X14450Y-20480D01*
X31675Y-20450D02*
X29125Y-20450D01*
X31675Y-20450D02*
X32325Y-21100D01*
X29125Y-20450D02*
X28700Y-20025D01*
X17070Y-15700D02*
X13530Y-15700D01*
X13530Y-15700D02*
X13330Y-15500D01*
X14825Y-11535D02*
X13580Y-11535D01*
X13580Y-11535D02*
X13330Y-11785D01*
X13330Y-11785D02*
X13330Y-15500D01*
X17070Y-14930D02*
X17310Y-14930D01*
X17310Y-14930D02*
X17475Y-14765D01*
X13330Y-15500D02*
X12100Y-15500D01*
X17475Y-14765D02*
X17475Y-14244D01*
X15440Y-12150D02*
X16450Y-12150D01*
X14825Y-11535D02*
X15440Y-12150D01*
X19815Y-18740D02*
X19544Y-18469D01*
X21368Y-18740D02*
X19815Y-18740D01*
X17244Y-15525D02*
X17070Y-15700D01*
X21705Y-17330D02*
X21705Y-18403D01*
X21705Y-18403D02*
X21368Y-18740D01*
X19544Y-18469D02*
X19544Y-17630D01*
X19950Y-15525D02*
X17244Y-15525D01*
X22650Y-17280D02*
X22365Y-16995D01*
X19544Y-17630D02*
X20450Y-16725D01*
X22365Y-16995D02*
X22040Y-16995D01*
X22040Y-16995D02*
X21705Y-17330D01*
X20450Y-16725D02*
X20450Y-16025D01*
X20450Y-16025D02*
X19950Y-15525D01*
X19345Y-10300D02*
X34175Y-10300D01*
X33625Y-11525D02*
X33395Y-11755D01*
X34150Y-11525D02*
X33625Y-11525D01*
X34275Y-11400D02*
X34150Y-11525D01*
X34275Y-10400D02*
X34275Y-11400D01*
X34175Y-10300D02*
X34275Y-10400D01*
X33080Y-21660D02*
X33395Y-21345D01*
X31325Y-21450D02*
X31535Y-21660D01*
X31535Y-21660D02*
X33080Y-21660D01*
X33395Y-21345D02*
X33395Y-11755D01*
X31325Y-21100D02*
X31325Y-21450D01*
X19345Y-10300D02*
X19075Y-10570D01*
X19075Y-10570D02*
X19075Y-11115D01*
X19075Y-11115D02*
X18900Y-11290D01*
X18900Y-11290D02*
X17890Y-11290D01*
X17890Y-11290D02*
X17450Y-10850D01*
X17450Y-12430D02*
X17450Y-10850D01*
X16975Y-14244D02*
X16975Y-12905D01*
X16975Y-12905D02*
X17450Y-12430D01*
X10800Y-13630D02*
X10800Y-14500D01*
X17450Y-10850D02*
X16600Y-10850D01*
X16600Y-10850D02*
X15850Y-11600D01*
X15850Y-11600D02*
X15220Y-11600D01*
X15220Y-11600D02*
X14810Y-11190D01*
X14810Y-11190D02*
X11900Y-11190D01*
X11900Y-11190D02*
X10990Y-12100D01*
X10990Y-12100D02*
X10990Y-13440D01*
X10990Y-13440D02*
X10800Y-13630D01*
X19800Y-16400D02*
X19700Y-16500D01*
X19700Y-16500D02*
X16875Y-16500D01*
X18400Y-18700D02*
X17985Y-18700D01*
X17985Y-18700D02*
X17635Y-19050D01*
X16200Y-17175D02*
X13475Y-17175D01*
X13475Y-17175D02*
X13325Y-17325D01*
X13325Y-17325D02*
X13325Y-18790D01*
X16475Y-17906D02*
X16475Y-18845D01*
X16475Y-18845D02*
X16680Y-19050D01*
X16680Y-19050D02*
X17635Y-19050D01*
X16475Y-17906D02*
X16475Y-17450D01*
X16475Y-17450D02*
X16200Y-17175D01*
X15450Y-19850D02*
X15450Y-21410D01*
X19800Y-17082D02*
X19394Y-17487D01*
X19394Y-17487D02*
X19394Y-18519D01*
X19394Y-18519D02*
X19750Y-18875D01*
X22205Y-18503D02*
X22205Y-17275D01*
X19800Y-16500D02*
X19800Y-17082D01*
X19750Y-18875D02*
X21833Y-18875D01*
X21833Y-18875D02*
X22205Y-18503D01*
X22675Y-13700D02*
X23775Y-13700D01*
X23775Y-13700D02*
X25425Y-15350D01*
X25425Y-15350D02*
X26625Y-15350D01*
X24850Y-20575D02*
X27825Y-20575D01*
X28125Y-20275D02*
X28125Y-19700D01*
X27825Y-20575D02*
X28125Y-20275D01*
X24850Y-20575D02*
X24325Y-21100D01*
X32325Y-19600D02*
X28575Y-19600D01*
X28575Y-19600D02*
X28475Y-19700D01*
X28475Y-19700D02*
X28125Y-19700D01*
X21850Y-20275D02*
X21850Y-20475D01*
X23200Y-20550D02*
X23325Y-20675D01*
X21925Y-20550D02*
X23200Y-20550D01*
X21850Y-20475D02*
X21925Y-20550D01*
X19225Y-18308D02*
X19225Y-19275D01*
X18900Y-19600D02*
X18510Y-19600D01*
X19225Y-19275D02*
X18900Y-19600D01*
X23325Y-20675D02*
X23325Y-21100D01*
X32805Y-13000D02*
X32325Y-13000D01*
X33125Y-13320D02*
X32805Y-13000D01*
X13655Y-19095D02*
X13975Y-18775D01*
X12100Y-18795D02*
X12100Y-17500D01*
X12400Y-19095D02*
X12100Y-18795D01*
X13655Y-19095D02*
X12400Y-19095D01*
X14975Y-18775D02*
X15475Y-18775D01*
X15475Y-17906D02*
X15475Y-18775D01*
X15475Y-18775D02*
X15475Y-18935D01*
X15475Y-18935D02*
X15590Y-19050D01*
X18210Y-19300D02*
X18510Y-19600D01*
X16400Y-19300D02*
X18210Y-19300D01*
X16400Y-19300D02*
X16150Y-19050D01*
X16150Y-19050D02*
X15590Y-19050D01*
X33125Y-18285D02*
X33125Y-13320D01*
X12100Y-17500D02*
X12100Y-17010D01*
X15975Y-14244D02*
X15975Y-14745D01*
X15975Y-14745D02*
X16140Y-14910D01*
X15475Y-14244D02*
X15475Y-13650D01*
X15975Y-14244D02*
X15975Y-13775D01*
X15850Y-13650D02*
X15475Y-13650D01*
X15475Y-13650D02*
X15050Y-13650D01*
X15975Y-13775D02*
X15850Y-13650D01*
X14450Y-12150D02*
X14450Y-13200D01*
X12100Y-17500D02*
X11250Y-17500D01*
X14475Y-18775D02*
X14975Y-18775D01*
X24325Y-21100D02*
X23325Y-21100D01*
X14475Y-13200D02*
X14450Y-13200D01*
X14450Y-13200D02*
X14100Y-13200D01*
X14475Y-14244D02*
X14475Y-13200D01*
X15050Y-13200D02*
X15050Y-13650D01*
X14475Y-13200D02*
X15050Y-13200D01*
X13975Y-13325D02*
X14100Y-13200D01*
X14975Y-14244D02*
X14975Y-13725D01*
X14975Y-13725D02*
X15050Y-13650D01*
X13975Y-13325D02*
X13975Y-14244D01*
X27775Y-14200D02*
X26625Y-15350D01*
X32325Y-19600D02*
X32325Y-18600D01*
X14475Y-17906D02*
X14475Y-18775D01*
X32325Y-18600D02*
X32810Y-18600D01*
X32810Y-18600D02*
X33125Y-18285D01*
X14975Y-17906D02*
X14975Y-18775D01*
X14475Y-18775D02*
X13975Y-18775D01*
X13975Y-17906D02*
X13975Y-18775D01*
X31125Y-13000D02*
X32325Y-13000D01*
X27775Y-14200D02*
X27775Y-13695D01*
X27770Y-13700D02*
X27775Y-13695D01*
X18825Y-17908D02*
X18825Y-17125D01*
X19225Y-18308D02*
X18825Y-17908D01*
X31480Y-14770D02*
X31480Y-16875D01*
X31480Y-16875D02*
X30920Y-17435D01*
X31650Y-14600D02*
X32325Y-14600D01*
X31480Y-14770D02*
X31650Y-14600D01*
X33900Y-12000D02*
X34600Y-12000D01*
G54D11*
G36*
X16018Y-16790D02*
X15959Y-16814D01*
X15888Y-16885D01*
X13475Y-16885D01*
X13364Y-16907D01*
X13269Y-16969D01*
X13119Y-17119D01*
X13057Y-17214D01*
X13035Y-17325D01*
X13035Y-18478D01*
X12964Y-18548D01*
X12900Y-18705D01*
X12899Y-18874D01*
X12964Y-19030D01*
X13083Y-19150D01*
X13240Y-19214D01*
X13409Y-19215D01*
X13565Y-19150D01*
X13685Y-19031D01*
X13749Y-18874D01*
X13750Y-18705D01*
X13685Y-18549D01*
X13615Y-18478D01*
X13615Y-18368D01*
X13645Y-18441D01*
X13715Y-18511D01*
X13807Y-18549D01*
X13862Y-18549D01*
X13925Y-18487D01*
X13925Y-17956D01*
X13917Y-17956D01*
X13917Y-17856D01*
X13925Y-17856D01*
X13925Y-17848D01*
X14025Y-17848D01*
X14025Y-17856D01*
X14169Y-17856D01*
X14280Y-17856D01*
X14425Y-17856D01*
X14425Y-17848D01*
X14525Y-17848D01*
X14525Y-17856D01*
X14669Y-17856D01*
X14780Y-17856D01*
X14925Y-17856D01*
X14925Y-17848D01*
X15025Y-17848D01*
X15025Y-17856D01*
X15169Y-17856D01*
X15280Y-17856D01*
X15425Y-17856D01*
X15425Y-17848D01*
X15525Y-17848D01*
X15525Y-17856D01*
X15532Y-17856D01*
X15532Y-17956D01*
X15525Y-17956D01*
X15525Y-17963D01*
X15425Y-17963D01*
X15425Y-17956D01*
X15280Y-17956D01*
X15169Y-17956D01*
X15025Y-17956D01*
X15025Y-18487D01*
X15087Y-18549D01*
X15142Y-18549D01*
X15225Y-18515D01*
X15307Y-18549D01*
X15362Y-18549D01*
X15424Y-18487D01*
X15424Y-18549D01*
X15425Y-18549D01*
X15450Y-18549D01*
X15425Y-18610D01*
X15425Y-18699D01*
X15424Y-18789D01*
X15493Y-18954D01*
X15498Y-18960D01*
X14925Y-18960D01*
X14925Y-18487D01*
X14925Y-17956D01*
X14780Y-17956D01*
X14669Y-17956D01*
X14525Y-17956D01*
X14525Y-18487D01*
X14587Y-18549D01*
X14642Y-18549D01*
X14725Y-18515D01*
X14807Y-18549D01*
X14862Y-18549D01*
X14925Y-18487D01*
X14925Y-18960D01*
X14515Y-18960D01*
X14425Y-18977D01*
X14425Y-18487D01*
X14425Y-17956D01*
X14280Y-17956D01*
X14169Y-17956D01*
X14025Y-17956D01*
X14025Y-18487D01*
X14087Y-18549D01*
X14142Y-18549D01*
X14225Y-18515D01*
X14307Y-18549D01*
X14362Y-18549D01*
X14425Y-18487D01*
X14425Y-18977D01*
X14404Y-18982D01*
X14309Y-19044D01*
X14129Y-19225D01*
X12750Y-19225D01*
X12750Y-17749D01*
X12750Y-17612D01*
X12750Y-17387D01*
X12750Y-17250D01*
X12711Y-17158D01*
X12641Y-17088D01*
X12549Y-17050D01*
X12450Y-17050D01*
X12212Y-17050D01*
X12150Y-17112D01*
X12150Y-17450D01*
X12687Y-17450D01*
X12750Y-17387D01*
X12750Y-17612D01*
X12687Y-17550D01*
X12150Y-17550D01*
X12150Y-17887D01*
X12212Y-17950D01*
X12450Y-17950D01*
X12549Y-17950D01*
X12641Y-17911D01*
X12711Y-17841D01*
X12750Y-17749D01*
X12750Y-19225D01*
X12300Y-19225D01*
X12050Y-18974D01*
X12050Y-17887D01*
X12050Y-17550D01*
X12050Y-17450D01*
X12050Y-17112D01*
X11987Y-17050D01*
X11749Y-17050D01*
X11650Y-17050D01*
X11558Y-17088D01*
X11488Y-17158D01*
X11450Y-17250D01*
X11450Y-17387D01*
X11512Y-17450D01*
X12050Y-17450D01*
X12050Y-17550D01*
X11512Y-17550D01*
X11450Y-17612D01*
X11450Y-17749D01*
X11488Y-17841D01*
X11558Y-17911D01*
X11650Y-17950D01*
X11749Y-17950D01*
X11987Y-17950D01*
X12050Y-17887D01*
X12050Y-18974D01*
X11990Y-18914D01*
X11895Y-18852D01*
X11785Y-18830D01*
X11215Y-18830D01*
X11090Y-18704D01*
X11090Y-16950D01*
X11249Y-16950D01*
X11341Y-16911D01*
X11411Y-16841D01*
X11433Y-16790D01*
X12428Y-16790D01*
X12498Y-16860D01*
X12655Y-16924D01*
X12824Y-16925D01*
X12980Y-16860D01*
X13051Y-16790D01*
X16018Y-16790D01*
X16018Y-16790D01*
G37*
X16018Y-16790D02*
X15959Y-16814D01*
X15888Y-16885D01*
X13475Y-16885D01*
X13364Y-16907D01*
X13269Y-16969D01*
X13119Y-17119D01*
X13057Y-17214D01*
X13035Y-17325D01*
X13035Y-18478D01*
X12964Y-18548D01*
X12900Y-18705D01*
X12899Y-18874D01*
X12964Y-19030D01*
X13083Y-19150D01*
X13240Y-19214D01*
X13409Y-19215D01*
X13565Y-19150D01*
X13685Y-19031D01*
X13749Y-18874D01*
X13750Y-18705D01*
X13685Y-18549D01*
X13615Y-18478D01*
X13615Y-18368D01*
X13645Y-18441D01*
X13715Y-18511D01*
X13807Y-18549D01*
X13862Y-18549D01*
X13925Y-18487D01*
X13925Y-17956D01*
X13917Y-17956D01*
X13917Y-17856D01*
X13925Y-17856D01*
X13925Y-17848D01*
X14025Y-17848D01*
X14025Y-17856D01*
X14169Y-17856D01*
X14280Y-17856D01*
X14425Y-17856D01*
X14425Y-17848D01*
X14525Y-17848D01*
X14525Y-17856D01*
X14669Y-17856D01*
X14780Y-17856D01*
X14925Y-17856D01*
X14925Y-17848D01*
X15025Y-17848D01*
X15025Y-17856D01*
X15169Y-17856D01*
X15280Y-17856D01*
X15425Y-17856D01*
X15425Y-17848D01*
X15525Y-17848D01*
X15525Y-17856D01*
X15532Y-17856D01*
X15532Y-17956D01*
X15525Y-17956D01*
X15525Y-17963D01*
X15425Y-17963D01*
X15425Y-17956D01*
X15280Y-17956D01*
X15169Y-17956D01*
X15025Y-17956D01*
X15025Y-18487D01*
X15087Y-18549D01*
X15142Y-18549D01*
X15225Y-18515D01*
X15307Y-18549D01*
X15362Y-18549D01*
X15424Y-18487D01*
X15424Y-18549D01*
X15425Y-18549D01*
X15450Y-18549D01*
X15425Y-18610D01*
X15425Y-18699D01*
X15424Y-18789D01*
X15493Y-18954D01*
X15498Y-18960D01*
X14925Y-18960D01*
X14925Y-18487D01*
X14925Y-17956D01*
X14780Y-17956D01*
X14669Y-17956D01*
X14525Y-17956D01*
X14525Y-18487D01*
X14587Y-18549D01*
X14642Y-18549D01*
X14725Y-18515D01*
X14807Y-18549D01*
X14862Y-18549D01*
X14925Y-18487D01*
X14925Y-18960D01*
X14515Y-18960D01*
X14425Y-18977D01*
X14425Y-18487D01*
X14425Y-17956D01*
X14280Y-17956D01*
X14169Y-17956D01*
X14025Y-17956D01*
X14025Y-18487D01*
X14087Y-18549D01*
X14142Y-18549D01*
X14225Y-18515D01*
X14307Y-18549D01*
X14362Y-18549D01*
X14425Y-18487D01*
X14425Y-18977D01*
X14404Y-18982D01*
X14309Y-19044D01*
X14129Y-19225D01*
X12750Y-19225D01*
X12750Y-17749D01*
X12750Y-17612D01*
X12750Y-17387D01*
X12750Y-17250D01*
X12711Y-17158D01*
X12641Y-17088D01*
X12549Y-17050D01*
X12450Y-17050D01*
X12212Y-17050D01*
X12150Y-17112D01*
X12150Y-17450D01*
X12687Y-17450D01*
X12750Y-17387D01*
X12750Y-17612D01*
X12687Y-17550D01*
X12150Y-17550D01*
X12150Y-17887D01*
X12212Y-17950D01*
X12450Y-17950D01*
X12549Y-17950D01*
X12641Y-17911D01*
X12711Y-17841D01*
X12750Y-17749D01*
X12750Y-19225D01*
X12300Y-19225D01*
X12050Y-18974D01*
X12050Y-17887D01*
X12050Y-17550D01*
X12050Y-17450D01*
X12050Y-17112D01*
X11987Y-17050D01*
X11749Y-17050D01*
X11650Y-17050D01*
X11558Y-17088D01*
X11488Y-17158D01*
X11450Y-17250D01*
X11450Y-17387D01*
X11512Y-17450D01*
X12050Y-17450D01*
X12050Y-17550D01*
X11512Y-17550D01*
X11450Y-17612D01*
X11450Y-17749D01*
X11488Y-17841D01*
X11558Y-17911D01*
X11650Y-17950D01*
X11749Y-17950D01*
X11987Y-17950D01*
X12050Y-17887D01*
X12050Y-18974D01*
X11990Y-18914D01*
X11895Y-18852D01*
X11785Y-18830D01*
X11215Y-18830D01*
X11090Y-18704D01*
X11090Y-16950D01*
X11249Y-16950D01*
X11341Y-16911D01*
X11411Y-16841D01*
X11433Y-16790D01*
X12428Y-16790D01*
X12498Y-16860D01*
X12655Y-16924D01*
X12824Y-16925D01*
X12980Y-16860D01*
X13051Y-16790D01*
X16018Y-16790D01*
G36*
X16489Y-15410D02*
X15925Y-15410D01*
X15925Y-14825D01*
X15925Y-14294D01*
X15780Y-14294D01*
X15669Y-14294D01*
X15525Y-14294D01*
X15525Y-14825D01*
X15587Y-14887D01*
X15642Y-14887D01*
X15725Y-14853D01*
X15807Y-14887D01*
X15862Y-14887D01*
X15925Y-14825D01*
X15925Y-15410D01*
X15425Y-15410D01*
X15425Y-14825D01*
X15425Y-14294D01*
X15280Y-14294D01*
X15169Y-14294D01*
X15025Y-14294D01*
X15025Y-14825D01*
X15087Y-14887D01*
X15142Y-14887D01*
X15225Y-14853D01*
X15307Y-14887D01*
X15362Y-14887D01*
X15425Y-14825D01*
X15425Y-15410D01*
X15334Y-15410D01*
X15335Y-15295D01*
X15270Y-15139D01*
X15151Y-15019D01*
X15000Y-14957D01*
X14994Y-14955D01*
X14925Y-14955D01*
X14925Y-14825D01*
X14925Y-14294D01*
X14780Y-14294D01*
X14669Y-14294D01*
X14525Y-14294D01*
X14525Y-14825D01*
X14587Y-14887D01*
X14642Y-14887D01*
X14725Y-14853D01*
X14807Y-14887D01*
X14862Y-14887D01*
X14925Y-14825D01*
X14925Y-14955D01*
X14825Y-14954D01*
X14669Y-15019D01*
X14598Y-15090D01*
X14425Y-15090D01*
X14425Y-14825D01*
X14425Y-14294D01*
X14425Y-14194D01*
X14425Y-13663D01*
X14362Y-13600D01*
X14307Y-13600D01*
X14225Y-13634D01*
X14142Y-13600D01*
X14087Y-13600D01*
X14025Y-13663D01*
X14025Y-14194D01*
X14169Y-14194D01*
X14280Y-14194D01*
X14425Y-14194D01*
X14425Y-14294D01*
X14280Y-14294D01*
X14169Y-14294D01*
X14025Y-14294D01*
X14025Y-14825D01*
X14087Y-14887D01*
X14142Y-14887D01*
X14225Y-14853D01*
X14307Y-14887D01*
X14362Y-14887D01*
X14425Y-14825D01*
X14425Y-15090D01*
X14080Y-15090D01*
X13950Y-14959D01*
X13950Y-12441D01*
X14000Y-12391D01*
X14000Y-12500D01*
X14000Y-12599D01*
X14038Y-12691D01*
X14108Y-12761D01*
X14200Y-12800D01*
X14337Y-12800D01*
X14400Y-12737D01*
X14400Y-12200D01*
X14392Y-12200D01*
X14392Y-12100D01*
X14400Y-12100D01*
X14400Y-12092D01*
X14500Y-12092D01*
X14500Y-12100D01*
X14837Y-12100D01*
X14900Y-12037D01*
X14900Y-12020D01*
X15234Y-12355D01*
X15329Y-12417D01*
X15440Y-12440D01*
X16000Y-12440D01*
X16000Y-12599D01*
X16029Y-12670D01*
X16010Y-12670D01*
X15590Y-12670D01*
X15498Y-12708D01*
X15450Y-12756D01*
X15401Y-12708D01*
X15309Y-12670D01*
X15162Y-12670D01*
X15100Y-12732D01*
X15100Y-13150D01*
X15107Y-13150D01*
X15107Y-13250D01*
X15100Y-13250D01*
X15100Y-13257D01*
X15000Y-13257D01*
X15000Y-13250D01*
X15000Y-13150D01*
X15000Y-12732D01*
X14937Y-12670D01*
X14870Y-12670D01*
X14900Y-12599D01*
X14900Y-12500D01*
X14900Y-12262D01*
X14837Y-12200D01*
X14500Y-12200D01*
X14500Y-12737D01*
X14562Y-12800D01*
X14619Y-12800D01*
X14590Y-12870D01*
X14590Y-12969D01*
X14590Y-13087D01*
X14652Y-13150D01*
X15000Y-13150D01*
X15000Y-13250D01*
X14652Y-13250D01*
X14590Y-13312D01*
X14590Y-13430D01*
X14590Y-13529D01*
X14619Y-13600D01*
X14587Y-13600D01*
X14525Y-13663D01*
X14525Y-14194D01*
X14669Y-14194D01*
X14780Y-14194D01*
X14925Y-14194D01*
X14925Y-14186D01*
X15000Y-14186D01*
X15025Y-14186D01*
X15025Y-14194D01*
X15169Y-14194D01*
X15280Y-14194D01*
X15425Y-14194D01*
X15425Y-14186D01*
X15525Y-14186D01*
X15525Y-14194D01*
X15669Y-14194D01*
X15780Y-14194D01*
X15925Y-14194D01*
X15925Y-14186D01*
X16025Y-14186D01*
X16025Y-14194D01*
X16032Y-14194D01*
X16032Y-14294D01*
X16025Y-14294D01*
X16025Y-14825D01*
X16087Y-14887D01*
X16142Y-14887D01*
X16185Y-14869D01*
X16185Y-14985D01*
X16207Y-15095D01*
X16269Y-15190D01*
X16489Y-15410D01*
X16489Y-15410D01*
G37*
X16489Y-15410D02*
X15925Y-15410D01*
X15925Y-14825D01*
X15925Y-14294D01*
X15780Y-14294D01*
X15669Y-14294D01*
X15525Y-14294D01*
X15525Y-14825D01*
X15587Y-14887D01*
X15642Y-14887D01*
X15725Y-14853D01*
X15807Y-14887D01*
X15862Y-14887D01*
X15925Y-14825D01*
X15925Y-15410D01*
X15425Y-15410D01*
X15425Y-14825D01*
X15425Y-14294D01*
X15280Y-14294D01*
X15169Y-14294D01*
X15025Y-14294D01*
X15025Y-14825D01*
X15087Y-14887D01*
X15142Y-14887D01*
X15225Y-14853D01*
X15307Y-14887D01*
X15362Y-14887D01*
X15425Y-14825D01*
X15425Y-15410D01*
X15334Y-15410D01*
X15335Y-15295D01*
X15270Y-15139D01*
X15151Y-15019D01*
X15000Y-14957D01*
X14994Y-14955D01*
X14925Y-14955D01*
X14925Y-14825D01*
X14925Y-14294D01*
X14780Y-14294D01*
X14669Y-14294D01*
X14525Y-14294D01*
X14525Y-14825D01*
X14587Y-14887D01*
X14642Y-14887D01*
X14725Y-14853D01*
X14807Y-14887D01*
X14862Y-14887D01*
X14925Y-14825D01*
X14925Y-14955D01*
X14825Y-14954D01*
X14669Y-15019D01*
X14598Y-15090D01*
X14425Y-15090D01*
X14425Y-14825D01*
X14425Y-14294D01*
X14425Y-14194D01*
X14425Y-13663D01*
X14362Y-13600D01*
X14307Y-13600D01*
X14225Y-13634D01*
X14142Y-13600D01*
X14087Y-13600D01*
X14025Y-13663D01*
X14025Y-14194D01*
X14169Y-14194D01*
X14280Y-14194D01*
X14425Y-14194D01*
X14425Y-14294D01*
X14280Y-14294D01*
X14169Y-14294D01*
X14025Y-14294D01*
X14025Y-14825D01*
X14087Y-14887D01*
X14142Y-14887D01*
X14225Y-14853D01*
X14307Y-14887D01*
X14362Y-14887D01*
X14425Y-14825D01*
X14425Y-15090D01*
X14080Y-15090D01*
X13950Y-14959D01*
X13950Y-12441D01*
X14000Y-12391D01*
X14000Y-12500D01*
X14000Y-12599D01*
X14038Y-12691D01*
X14108Y-12761D01*
X14200Y-12800D01*
X14337Y-12800D01*
X14400Y-12737D01*
X14400Y-12200D01*
X14392Y-12200D01*
X14392Y-12100D01*
X14400Y-12100D01*
X14400Y-12092D01*
X14500Y-12092D01*
X14500Y-12100D01*
X14837Y-12100D01*
X14900Y-12037D01*
X14900Y-12020D01*
X15234Y-12355D01*
X15329Y-12417D01*
X15440Y-12440D01*
X16000Y-12440D01*
X16000Y-12599D01*
X16029Y-12670D01*
X16010Y-12670D01*
X15590Y-12670D01*
X15498Y-12708D01*
X15450Y-12756D01*
X15401Y-12708D01*
X15309Y-12670D01*
X15162Y-12670D01*
X15100Y-12732D01*
X15100Y-13150D01*
X15107Y-13150D01*
X15107Y-13250D01*
X15100Y-13250D01*
X15100Y-13257D01*
X15000Y-13257D01*
X15000Y-13250D01*
X15000Y-13150D01*
X15000Y-12732D01*
X14937Y-12670D01*
X14870Y-12670D01*
X14900Y-12599D01*
X14900Y-12500D01*
X14900Y-12262D01*
X14837Y-12200D01*
X14500Y-12200D01*
X14500Y-12737D01*
X14562Y-12800D01*
X14619Y-12800D01*
X14590Y-12870D01*
X14590Y-12969D01*
X14590Y-13087D01*
X14652Y-13150D01*
X15000Y-13150D01*
X15000Y-13250D01*
X14652Y-13250D01*
X14590Y-13312D01*
X14590Y-13430D01*
X14590Y-13529D01*
X14619Y-13600D01*
X14587Y-13600D01*
X14525Y-13663D01*
X14525Y-14194D01*
X14669Y-14194D01*
X14780Y-14194D01*
X14925Y-14194D01*
X14925Y-14186D01*
X15000Y-14186D01*
X15025Y-14186D01*
X15025Y-14194D01*
X15169Y-14194D01*
X15280Y-14194D01*
X15425Y-14194D01*
X15425Y-14186D01*
X15525Y-14186D01*
X15525Y-14194D01*
X15669Y-14194D01*
X15780Y-14194D01*
X15925Y-14194D01*
X15925Y-14186D01*
X16025Y-14186D01*
X16025Y-14194D01*
X16032Y-14194D01*
X16032Y-14294D01*
X16025Y-14294D01*
X16025Y-14825D01*
X16087Y-14887D01*
X16142Y-14887D01*
X16185Y-14869D01*
X16185Y-14985D01*
X16207Y-15095D01*
X16269Y-15190D01*
X16489Y-15410D01*
G36*
X17024Y-19340D02*
X17000Y-19400D01*
X17000Y-19499D01*
X17000Y-19949D01*
X16130Y-19080D01*
X16226Y-18984D01*
X16269Y-19050D01*
X16474Y-19255D01*
X16569Y-19317D01*
X16680Y-19340D01*
X17024Y-19340D01*
X17024Y-19340D01*
G37*
X17024Y-19340D02*
X17000Y-19400D01*
X17000Y-19499D01*
X17000Y-19949D01*
X16130Y-19080D01*
X16226Y-18984D01*
X16269Y-19050D01*
X16474Y-19255D01*
X16569Y-19317D01*
X16680Y-19340D01*
X17024Y-19340D01*
G36*
X20389Y-19165D02*
X19869Y-19685D01*
X18270Y-19685D01*
X18230Y-19644D01*
X18135Y-19582D01*
X18025Y-19560D01*
X17900Y-19560D01*
X17900Y-19400D01*
X17861Y-19308D01*
X17821Y-19267D01*
X17840Y-19255D01*
X17945Y-19149D01*
X17963Y-19167D01*
X18055Y-19206D01*
X18154Y-19206D01*
X18744Y-19206D01*
X18799Y-19183D01*
X18840Y-19199D01*
X19009Y-19200D01*
X19165Y-19135D01*
X19285Y-19016D01*
X19342Y-18877D01*
X19544Y-19080D01*
X19639Y-19142D01*
X19639Y-19142D01*
X19750Y-19165D01*
X19750Y-19165D01*
X19750Y-19165D01*
X20389Y-19165D01*
X20389Y-19165D01*
G37*
X20389Y-19165D02*
X19869Y-19685D01*
X18270Y-19685D01*
X18230Y-19644D01*
X18135Y-19582D01*
X18025Y-19560D01*
X17900Y-19560D01*
X17900Y-19400D01*
X17861Y-19308D01*
X17821Y-19267D01*
X17840Y-19255D01*
X17945Y-19149D01*
X17963Y-19167D01*
X18055Y-19206D01*
X18154Y-19206D01*
X18744Y-19206D01*
X18799Y-19183D01*
X18840Y-19199D01*
X19009Y-19200D01*
X19165Y-19135D01*
X19285Y-19016D01*
X19342Y-18877D01*
X19544Y-19080D01*
X19639Y-19142D01*
X19639Y-19142D01*
X19750Y-19165D01*
X19750Y-19165D01*
X19750Y-19165D01*
X20389Y-19165D01*
G36*
X22229Y-10590D02*
X21125Y-11694D01*
X21125Y-11691D01*
X21041Y-11488D01*
X20902Y-11350D01*
X20924Y-11350D01*
X21016Y-11311D01*
X21086Y-11241D01*
X21125Y-11149D01*
X21125Y-11050D01*
X21125Y-10912D01*
X21062Y-10850D01*
X20625Y-10850D01*
X20625Y-10857D01*
X20525Y-10857D01*
X20525Y-10850D01*
X20517Y-10850D01*
X20517Y-10750D01*
X20525Y-10750D01*
X20525Y-10742D01*
X20625Y-10742D01*
X20625Y-10750D01*
X21062Y-10750D01*
X21125Y-10687D01*
X21125Y-10590D01*
X22229Y-10590D01*
X22229Y-10590D01*
G37*
X22229Y-10590D02*
X21125Y-11694D01*
X21125Y-11691D01*
X21041Y-11488D01*
X20902Y-11350D01*
X20924Y-11350D01*
X21016Y-11311D01*
X21086Y-11241D01*
X21125Y-11149D01*
X21125Y-11050D01*
X21125Y-10912D01*
X21062Y-10850D01*
X20625Y-10850D01*
X20625Y-10857D01*
X20525Y-10857D01*
X20525Y-10850D01*
X20517Y-10850D01*
X20517Y-10750D01*
X20525Y-10750D01*
X20525Y-10742D01*
X20625Y-10742D01*
X20625Y-10750D01*
X21062Y-10750D01*
X21125Y-10687D01*
X21125Y-10590D01*
X22229Y-10590D01*
G36*
X26382Y-19650D02*
X26375Y-19650D01*
X26375Y-19657D01*
X26275Y-19657D01*
X26275Y-19650D01*
X26267Y-19650D01*
X26267Y-19550D01*
X26275Y-19550D01*
X26275Y-19542D01*
X26375Y-19542D01*
X26375Y-19550D01*
X26382Y-19550D01*
X26382Y-19650D01*
X26382Y-19650D01*
G37*
X26382Y-19650D02*
X26375Y-19650D01*
X26375Y-19657D01*
X26275Y-19657D01*
X26275Y-19650D01*
X26267Y-19650D01*
X26267Y-19550D01*
X26275Y-19550D01*
X26275Y-19542D01*
X26375Y-19542D01*
X26375Y-19550D01*
X26382Y-19550D01*
X26382Y-19650D01*
G36*
X31044Y-16900D02*
X30934Y-17010D01*
X30835Y-17009D01*
X30679Y-17074D01*
X30559Y-17193D01*
X30495Y-17350D01*
X30494Y-17519D01*
X30515Y-17569D01*
X30514Y-17569D01*
X30364Y-17719D01*
X30302Y-17814D01*
X30280Y-17925D01*
X30280Y-18609D01*
X30154Y-18735D01*
X28175Y-18735D01*
X28175Y-16699D01*
X28175Y-16600D01*
X28175Y-15462D01*
X28175Y-15237D01*
X28175Y-14099D01*
X28175Y-14000D01*
X28136Y-13908D01*
X28066Y-13838D01*
X27974Y-13800D01*
X26737Y-13800D01*
X26675Y-13862D01*
X26675Y-15300D01*
X28112Y-15300D01*
X28175Y-15237D01*
X28175Y-15462D01*
X28112Y-15400D01*
X26675Y-15400D01*
X26675Y-16837D01*
X26737Y-16900D01*
X27974Y-16900D01*
X28066Y-16861D01*
X28136Y-16791D01*
X28175Y-16699D01*
X28175Y-18735D01*
X26575Y-18735D01*
X26575Y-16837D01*
X26575Y-15400D01*
X26575Y-15300D01*
X26575Y-13862D01*
X26512Y-13800D01*
X25275Y-13800D01*
X25183Y-13838D01*
X25113Y-13908D01*
X25075Y-14000D01*
X25075Y-14099D01*
X25075Y-15237D01*
X25137Y-15300D01*
X26575Y-15300D01*
X26575Y-15400D01*
X25137Y-15400D01*
X25075Y-15462D01*
X25075Y-16600D01*
X25075Y-16699D01*
X25113Y-16791D01*
X25183Y-16861D01*
X25275Y-16900D01*
X26512Y-16900D01*
X26575Y-16837D01*
X26575Y-18735D01*
X22960Y-18735D01*
X22940Y-18714D01*
X22940Y-17895D01*
X23180Y-17655D01*
X23242Y-17560D01*
X23265Y-17450D01*
X23265Y-16975D01*
X23242Y-16864D01*
X23211Y-16817D01*
X23236Y-16791D01*
X23275Y-16699D01*
X23275Y-16600D01*
X23275Y-14000D01*
X23236Y-13908D01*
X23166Y-13838D01*
X23074Y-13800D01*
X22975Y-13800D01*
X21975Y-13800D01*
X21883Y-13838D01*
X21813Y-13908D01*
X21775Y-14000D01*
X21775Y-14099D01*
X21775Y-14229D01*
X21675Y-14210D01*
X20433Y-14210D01*
X20411Y-14158D01*
X20369Y-14115D01*
X22635Y-11850D01*
X26313Y-11850D01*
X26383Y-11920D01*
X26540Y-11984D01*
X26709Y-11985D01*
X26865Y-11920D01*
X26985Y-11801D01*
X27049Y-11644D01*
X27050Y-11515D01*
X28188Y-11515D01*
X28258Y-11585D01*
X28415Y-11649D01*
X28584Y-11650D01*
X28740Y-11585D01*
X28860Y-11466D01*
X28924Y-11309D01*
X28925Y-11140D01*
X28924Y-11140D01*
X29729Y-11140D01*
X30319Y-11730D01*
X30414Y-11792D01*
X30462Y-11802D01*
X30169Y-12094D01*
X30107Y-12189D01*
X30085Y-12300D01*
X30085Y-13475D01*
X30107Y-13585D01*
X30169Y-13680D01*
X30289Y-13800D01*
X30175Y-13800D01*
X30083Y-13838D01*
X30013Y-13908D01*
X29975Y-14000D01*
X29975Y-14099D01*
X29975Y-16699D01*
X30013Y-16791D01*
X30083Y-16861D01*
X30175Y-16900D01*
X30274Y-16900D01*
X31044Y-16900D01*
X31044Y-16900D01*
G37*
X31044Y-16900D02*
X30934Y-17010D01*
X30835Y-17009D01*
X30679Y-17074D01*
X30559Y-17193D01*
X30495Y-17350D01*
X30494Y-17519D01*
X30515Y-17569D01*
X30514Y-17569D01*
X30364Y-17719D01*
X30302Y-17814D01*
X30280Y-17925D01*
X30280Y-18609D01*
X30154Y-18735D01*
X28175Y-18735D01*
X28175Y-16699D01*
X28175Y-16600D01*
X28175Y-15462D01*
X28175Y-15237D01*
X28175Y-14099D01*
X28175Y-14000D01*
X28136Y-13908D01*
X28066Y-13838D01*
X27974Y-13800D01*
X26737Y-13800D01*
X26675Y-13862D01*
X26675Y-15300D01*
X28112Y-15300D01*
X28175Y-15237D01*
X28175Y-15462D01*
X28112Y-15400D01*
X26675Y-15400D01*
X26675Y-16837D01*
X26737Y-16900D01*
X27974Y-16900D01*
X28066Y-16861D01*
X28136Y-16791D01*
X28175Y-16699D01*
X28175Y-18735D01*
X26575Y-18735D01*
X26575Y-16837D01*
X26575Y-15400D01*
X26575Y-15300D01*
X26575Y-13862D01*
X26512Y-13800D01*
X25275Y-13800D01*
X25183Y-13838D01*
X25113Y-13908D01*
X25075Y-14000D01*
X25075Y-14099D01*
X25075Y-15237D01*
X25137Y-15300D01*
X26575Y-15300D01*
X26575Y-15400D01*
X25137Y-15400D01*
X25075Y-15462D01*
X25075Y-16600D01*
X25075Y-16699D01*
X25113Y-16791D01*
X25183Y-16861D01*
X25275Y-16900D01*
X26512Y-16900D01*
X26575Y-16837D01*
X26575Y-18735D01*
X22960Y-18735D01*
X22940Y-18714D01*
X22940Y-17895D01*
X23180Y-17655D01*
X23242Y-17560D01*
X23265Y-17450D01*
X23265Y-16975D01*
X23242Y-16864D01*
X23211Y-16817D01*
X23236Y-16791D01*
X23275Y-16699D01*
X23275Y-16600D01*
X23275Y-14000D01*
X23236Y-13908D01*
X23166Y-13838D01*
X23074Y-13800D01*
X22975Y-13800D01*
X21975Y-13800D01*
X21883Y-13838D01*
X21813Y-13908D01*
X21775Y-14000D01*
X21775Y-14099D01*
X21775Y-14229D01*
X21675Y-14210D01*
X20433Y-14210D01*
X20411Y-14158D01*
X20369Y-14115D01*
X22635Y-11850D01*
X26313Y-11850D01*
X26383Y-11920D01*
X26540Y-11984D01*
X26709Y-11985D01*
X26865Y-11920D01*
X26985Y-11801D01*
X27049Y-11644D01*
X27050Y-11515D01*
X28188Y-11515D01*
X28258Y-11585D01*
X28415Y-11649D01*
X28584Y-11650D01*
X28740Y-11585D01*
X28860Y-11466D01*
X28924Y-11309D01*
X28925Y-11140D01*
X28924Y-11140D01*
X29729Y-11140D01*
X30319Y-11730D01*
X30414Y-11792D01*
X30462Y-11802D01*
X30169Y-12094D01*
X30107Y-12189D01*
X30085Y-12300D01*
X30085Y-13475D01*
X30107Y-13585D01*
X30169Y-13680D01*
X30289Y-13800D01*
X30175Y-13800D01*
X30083Y-13838D01*
X30013Y-13908D01*
X29975Y-14000D01*
X29975Y-14099D01*
X29975Y-16699D01*
X30013Y-16791D01*
X30083Y-16861D01*
X30175Y-16900D01*
X30274Y-16900D01*
X31044Y-16900D01*
G36*
X31164Y-21700D02*
X24275Y-21700D01*
X24275Y-21587D01*
X24275Y-21150D01*
X24275Y-21050D01*
X24275Y-20612D01*
X24212Y-20550D01*
X23975Y-20550D01*
X23883Y-20588D01*
X23825Y-20646D01*
X23766Y-20588D01*
X23674Y-20550D01*
X23437Y-20550D01*
X23375Y-20612D01*
X23375Y-21050D01*
X23812Y-21050D01*
X23825Y-21037D01*
X23837Y-21050D01*
X24275Y-21050D01*
X24275Y-21150D01*
X23837Y-21150D01*
X23825Y-21162D01*
X23812Y-21150D01*
X23375Y-21150D01*
X23375Y-21587D01*
X23437Y-21650D01*
X23674Y-21650D01*
X23766Y-21611D01*
X23825Y-21553D01*
X23883Y-21611D01*
X23975Y-21650D01*
X24212Y-21650D01*
X24275Y-21587D01*
X24275Y-21700D01*
X21550Y-21700D01*
X21592Y-21635D01*
X21604Y-21579D01*
X21636Y-21566D01*
X21790Y-21411D01*
X21824Y-21330D01*
X21858Y-21411D01*
X22013Y-21565D01*
X22215Y-21649D01*
X22433Y-21650D01*
X22636Y-21566D01*
X22775Y-21427D01*
X22775Y-21449D01*
X22813Y-21541D01*
X22883Y-21611D01*
X22975Y-21650D01*
X23212Y-21650D01*
X23275Y-21587D01*
X23275Y-21150D01*
X23267Y-21150D01*
X23267Y-21050D01*
X23275Y-21050D01*
X23275Y-20612D01*
X23212Y-20550D01*
X22975Y-20550D01*
X22883Y-20588D01*
X22813Y-20658D01*
X22775Y-20750D01*
X22775Y-20772D01*
X22636Y-20634D01*
X22434Y-20550D01*
X22216Y-20549D01*
X22013Y-20633D01*
X21859Y-20788D01*
X21825Y-20869D01*
X21791Y-20788D01*
X21636Y-20634D01*
X21434Y-20550D01*
X21216Y-20549D01*
X21013Y-20633D01*
X20859Y-20788D01*
X20825Y-20869D01*
X20791Y-20788D01*
X20636Y-20634D01*
X20615Y-20624D01*
X20615Y-20570D01*
X20670Y-20515D01*
X21350Y-20515D01*
X21460Y-20492D01*
X21555Y-20430D01*
X21720Y-20265D01*
X21929Y-20265D01*
X22094Y-20430D01*
X22189Y-20492D01*
X22189Y-20492D01*
X22300Y-20515D01*
X26588Y-20515D01*
X26658Y-20585D01*
X26815Y-20649D01*
X26984Y-20650D01*
X27006Y-20640D01*
X26859Y-20788D01*
X26775Y-20990D01*
X26775Y-21010D01*
X26706Y-20845D01*
X26580Y-20718D01*
X26414Y-20650D01*
X26235Y-20649D01*
X26070Y-20718D01*
X25943Y-20844D01*
X25875Y-21010D01*
X25875Y-20991D01*
X25791Y-20788D01*
X25636Y-20634D01*
X25434Y-20550D01*
X25216Y-20549D01*
X25013Y-20633D01*
X24875Y-20772D01*
X24875Y-20750D01*
X24836Y-20658D01*
X24766Y-20588D01*
X24674Y-20550D01*
X24437Y-20550D01*
X24375Y-20612D01*
X24375Y-21050D01*
X24382Y-21050D01*
X24382Y-21150D01*
X24375Y-21150D01*
X24375Y-21587D01*
X24437Y-21650D01*
X24674Y-21650D01*
X24766Y-21611D01*
X24836Y-21541D01*
X24875Y-21449D01*
X24875Y-21427D01*
X25013Y-21565D01*
X25215Y-21649D01*
X25433Y-21650D01*
X25636Y-21566D01*
X25790Y-21411D01*
X25874Y-21209D01*
X25874Y-21189D01*
X25943Y-21354D01*
X26069Y-21481D01*
X26235Y-21549D01*
X26414Y-21550D01*
X26579Y-21481D01*
X26706Y-21355D01*
X26774Y-21189D01*
X26774Y-21208D01*
X26858Y-21411D01*
X27013Y-21565D01*
X27215Y-21649D01*
X27433Y-21650D01*
X27636Y-21566D01*
X27790Y-21411D01*
X27824Y-21330D01*
X27858Y-21411D01*
X28013Y-21565D01*
X28215Y-21649D01*
X28433Y-21650D01*
X28636Y-21566D01*
X28790Y-21411D01*
X28824Y-21330D01*
X28858Y-21411D01*
X29013Y-21565D01*
X29215Y-21649D01*
X29433Y-21650D01*
X29636Y-21566D01*
X29790Y-21411D01*
X29824Y-21330D01*
X29858Y-21411D01*
X30013Y-21565D01*
X30215Y-21649D01*
X30433Y-21650D01*
X30636Y-21566D01*
X30790Y-21411D01*
X30824Y-21330D01*
X30858Y-21411D01*
X31013Y-21565D01*
X31078Y-21593D01*
X31119Y-21655D01*
X31164Y-21700D01*
X31164Y-21700D01*
G37*
X31164Y-21700D02*
X24275Y-21700D01*
X24275Y-21587D01*
X24275Y-21150D01*
X24275Y-21050D01*
X24275Y-20612D01*
X24212Y-20550D01*
X23975Y-20550D01*
X23883Y-20588D01*
X23825Y-20646D01*
X23766Y-20588D01*
X23674Y-20550D01*
X23437Y-20550D01*
X23375Y-20612D01*
X23375Y-21050D01*
X23812Y-21050D01*
X23825Y-21037D01*
X23837Y-21050D01*
X24275Y-21050D01*
X24275Y-21150D01*
X23837Y-21150D01*
X23825Y-21162D01*
X23812Y-21150D01*
X23375Y-21150D01*
X23375Y-21587D01*
X23437Y-21650D01*
X23674Y-21650D01*
X23766Y-21611D01*
X23825Y-21553D01*
X23883Y-21611D01*
X23975Y-21650D01*
X24212Y-21650D01*
X24275Y-21587D01*
X24275Y-21700D01*
X21550Y-21700D01*
X21592Y-21635D01*
X21604Y-21579D01*
X21636Y-21566D01*
X21790Y-21411D01*
X21824Y-21330D01*
X21858Y-21411D01*
X22013Y-21565D01*
X22215Y-21649D01*
X22433Y-21650D01*
X22636Y-21566D01*
X22775Y-21427D01*
X22775Y-21449D01*
X22813Y-21541D01*
X22883Y-21611D01*
X22975Y-21650D01*
X23212Y-21650D01*
X23275Y-21587D01*
X23275Y-21150D01*
X23267Y-21150D01*
X23267Y-21050D01*
X23275Y-21050D01*
X23275Y-20612D01*
X23212Y-20550D01*
X22975Y-20550D01*
X22883Y-20588D01*
X22813Y-20658D01*
X22775Y-20750D01*
X22775Y-20772D01*
X22636Y-20634D01*
X22434Y-20550D01*
X22216Y-20549D01*
X22013Y-20633D01*
X21859Y-20788D01*
X21825Y-20869D01*
X21791Y-20788D01*
X21636Y-20634D01*
X21434Y-20550D01*
X21216Y-20549D01*
X21013Y-20633D01*
X20859Y-20788D01*
X20825Y-20869D01*
X20791Y-20788D01*
X20636Y-20634D01*
X20615Y-20624D01*
X20615Y-20570D01*
X20670Y-20515D01*
X21350Y-20515D01*
X21460Y-20492D01*
X21555Y-20430D01*
X21720Y-20265D01*
X21929Y-20265D01*
X22094Y-20430D01*
X22189Y-20492D01*
X22189Y-20492D01*
X22300Y-20515D01*
X26588Y-20515D01*
X26658Y-20585D01*
X26815Y-20649D01*
X26984Y-20650D01*
X27006Y-20640D01*
X26859Y-20788D01*
X26775Y-20990D01*
X26775Y-21010D01*
X26706Y-20845D01*
X26580Y-20718D01*
X26414Y-20650D01*
X26235Y-20649D01*
X26070Y-20718D01*
X25943Y-20844D01*
X25875Y-21010D01*
X25875Y-20991D01*
X25791Y-20788D01*
X25636Y-20634D01*
X25434Y-20550D01*
X25216Y-20549D01*
X25013Y-20633D01*
X24875Y-20772D01*
X24875Y-20750D01*
X24836Y-20658D01*
X24766Y-20588D01*
X24674Y-20550D01*
X24437Y-20550D01*
X24375Y-20612D01*
X24375Y-21050D01*
X24382Y-21050D01*
X24382Y-21150D01*
X24375Y-21150D01*
X24375Y-21587D01*
X24437Y-21650D01*
X24674Y-21650D01*
X24766Y-21611D01*
X24836Y-21541D01*
X24875Y-21449D01*
X24875Y-21427D01*
X25013Y-21565D01*
X25215Y-21649D01*
X25433Y-21650D01*
X25636Y-21566D01*
X25790Y-21411D01*
X25874Y-21209D01*
X25874Y-21189D01*
X25943Y-21354D01*
X26069Y-21481D01*
X26235Y-21549D01*
X26414Y-21550D01*
X26579Y-21481D01*
X26706Y-21355D01*
X26774Y-21189D01*
X26774Y-21208D01*
X26858Y-21411D01*
X27013Y-21565D01*
X27215Y-21649D01*
X27433Y-21650D01*
X27636Y-21566D01*
X27790Y-21411D01*
X27824Y-21330D01*
X27858Y-21411D01*
X28013Y-21565D01*
X28215Y-21649D01*
X28433Y-21650D01*
X28636Y-21566D01*
X28790Y-21411D01*
X28824Y-21330D01*
X28858Y-21411D01*
X29013Y-21565D01*
X29215Y-21649D01*
X29433Y-21650D01*
X29636Y-21566D01*
X29790Y-21411D01*
X29824Y-21330D01*
X29858Y-21411D01*
X30013Y-21565D01*
X30215Y-21649D01*
X30433Y-21650D01*
X30636Y-21566D01*
X30790Y-21411D01*
X30824Y-21330D01*
X30858Y-21411D01*
X31013Y-21565D01*
X31078Y-21593D01*
X31119Y-21655D01*
X31164Y-21700D01*
G36*
X33105Y-19579D02*
X33094Y-19575D01*
X32925Y-19574D01*
X32879Y-19593D01*
X32879Y-18681D01*
X32868Y-18463D01*
X32806Y-18312D01*
X32710Y-18284D01*
X32395Y-18600D01*
X32710Y-18915D01*
X32806Y-18887D01*
X32879Y-18681D01*
X32879Y-19593D01*
X32875Y-19595D01*
X32875Y-19549D01*
X32812Y-19549D01*
X32875Y-19487D01*
X32875Y-19250D01*
X32836Y-19158D01*
X32766Y-19088D01*
X32674Y-19050D01*
X32621Y-19050D01*
X32640Y-18985D01*
X32325Y-18670D01*
X32009Y-18985D01*
X32028Y-19050D01*
X31975Y-19050D01*
X31883Y-19088D01*
X31813Y-19158D01*
X31775Y-19250D01*
X31775Y-19487D01*
X31837Y-19550D01*
X32275Y-19550D01*
X32275Y-19542D01*
X32375Y-19542D01*
X32375Y-19550D01*
X32382Y-19550D01*
X32382Y-19650D01*
X32375Y-19650D01*
X32375Y-19657D01*
X32275Y-19657D01*
X32275Y-19650D01*
X31837Y-19650D01*
X31775Y-19712D01*
X31775Y-19810D01*
X29886Y-19810D01*
X29816Y-19739D01*
X29659Y-19675D01*
X29490Y-19674D01*
X29334Y-19739D01*
X29214Y-19858D01*
X29150Y-20015D01*
X29150Y-20064D01*
X29124Y-20039D01*
X29125Y-19940D01*
X29060Y-19784D01*
X28941Y-19664D01*
X28784Y-19600D01*
X28615Y-19599D01*
X28459Y-19664D01*
X28339Y-19783D01*
X28275Y-19940D01*
X28274Y-20109D01*
X28339Y-20265D01*
X28458Y-20385D01*
X28615Y-20449D01*
X28714Y-20450D01*
X28919Y-20655D01*
X28963Y-20683D01*
X28859Y-20788D01*
X28825Y-20869D01*
X28791Y-20788D01*
X28636Y-20634D01*
X28434Y-20550D01*
X28216Y-20549D01*
X28013Y-20633D01*
X27859Y-20788D01*
X27825Y-20869D01*
X27791Y-20788D01*
X27636Y-20634D01*
X27434Y-20550D01*
X27216Y-20549D01*
X27147Y-20578D01*
X27260Y-20466D01*
X27324Y-20309D01*
X27325Y-20150D01*
X27433Y-20150D01*
X27636Y-20066D01*
X27790Y-19911D01*
X27874Y-19709D01*
X27875Y-19570D01*
X30647Y-19570D01*
X30758Y-19547D01*
X30852Y-19485D01*
X31110Y-19227D01*
X31172Y-19133D01*
X31195Y-19022D01*
X31195Y-18461D01*
X31216Y-18440D01*
X31775Y-18440D01*
X31799Y-18435D01*
X31770Y-18518D01*
X31781Y-18736D01*
X31843Y-18887D01*
X31939Y-18915D01*
X32254Y-18600D01*
X32248Y-18594D01*
X32319Y-18523D01*
X32325Y-18529D01*
X32640Y-18214D01*
X32612Y-18118D01*
X32557Y-18099D01*
X32636Y-18066D01*
X32790Y-17911D01*
X32874Y-17709D01*
X32875Y-17491D01*
X32810Y-17334D01*
X32855Y-17305D01*
X33085Y-17075D01*
X33105Y-17045D01*
X33105Y-19579D01*
X33105Y-19579D01*
G37*
X33105Y-19579D02*
X33094Y-19575D01*
X32925Y-19574D01*
X32879Y-19593D01*
X32879Y-18681D01*
X32868Y-18463D01*
X32806Y-18312D01*
X32710Y-18284D01*
X32395Y-18600D01*
X32710Y-18915D01*
X32806Y-18887D01*
X32879Y-18681D01*
X32879Y-19593D01*
X32875Y-19595D01*
X32875Y-19549D01*
X32812Y-19549D01*
X32875Y-19487D01*
X32875Y-19250D01*
X32836Y-19158D01*
X32766Y-19088D01*
X32674Y-19050D01*
X32621Y-19050D01*
X32640Y-18985D01*
X32325Y-18670D01*
X32009Y-18985D01*
X32028Y-19050D01*
X31975Y-19050D01*
X31883Y-19088D01*
X31813Y-19158D01*
X31775Y-19250D01*
X31775Y-19487D01*
X31837Y-19550D01*
X32275Y-19550D01*
X32275Y-19542D01*
X32375Y-19542D01*
X32375Y-19550D01*
X32382Y-19550D01*
X32382Y-19650D01*
X32375Y-19650D01*
X32375Y-19657D01*
X32275Y-19657D01*
X32275Y-19650D01*
X31837Y-19650D01*
X31775Y-19712D01*
X31775Y-19810D01*
X29886Y-19810D01*
X29816Y-19739D01*
X29659Y-19675D01*
X29490Y-19674D01*
X29334Y-19739D01*
X29214Y-19858D01*
X29150Y-20015D01*
X29150Y-20064D01*
X29124Y-20039D01*
X29125Y-19940D01*
X29060Y-19784D01*
X28941Y-19664D01*
X28784Y-19600D01*
X28615Y-19599D01*
X28459Y-19664D01*
X28339Y-19783D01*
X28275Y-19940D01*
X28274Y-20109D01*
X28339Y-20265D01*
X28458Y-20385D01*
X28615Y-20449D01*
X28714Y-20450D01*
X28919Y-20655D01*
X28963Y-20683D01*
X28859Y-20788D01*
X28825Y-20869D01*
X28791Y-20788D01*
X28636Y-20634D01*
X28434Y-20550D01*
X28216Y-20549D01*
X28013Y-20633D01*
X27859Y-20788D01*
X27825Y-20869D01*
X27791Y-20788D01*
X27636Y-20634D01*
X27434Y-20550D01*
X27216Y-20549D01*
X27147Y-20578D01*
X27260Y-20466D01*
X27324Y-20309D01*
X27325Y-20150D01*
X27433Y-20150D01*
X27636Y-20066D01*
X27790Y-19911D01*
X27874Y-19709D01*
X27875Y-19570D01*
X30647Y-19570D01*
X30758Y-19547D01*
X30852Y-19485D01*
X31110Y-19227D01*
X31172Y-19133D01*
X31195Y-19022D01*
X31195Y-18461D01*
X31216Y-18440D01*
X31775Y-18440D01*
X31799Y-18435D01*
X31770Y-18518D01*
X31781Y-18736D01*
X31843Y-18887D01*
X31939Y-18915D01*
X32254Y-18600D01*
X32248Y-18594D01*
X32319Y-18523D01*
X32325Y-18529D01*
X32640Y-18214D01*
X32612Y-18118D01*
X32557Y-18099D01*
X32636Y-18066D01*
X32790Y-17911D01*
X32874Y-17709D01*
X32875Y-17491D01*
X32810Y-17334D01*
X32855Y-17305D01*
X33085Y-17075D01*
X33105Y-17045D01*
X33105Y-19579D01*
G36*
X33149Y-11610D02*
X33127Y-11644D01*
X33105Y-11755D01*
X33105Y-13904D01*
X33085Y-13874D01*
X32830Y-13619D01*
X32735Y-13557D01*
X32683Y-13546D01*
X32766Y-13511D01*
X32836Y-13441D01*
X32875Y-13349D01*
X32875Y-13112D01*
X32812Y-13050D01*
X32375Y-13050D01*
X32375Y-13057D01*
X32275Y-13057D01*
X32275Y-13050D01*
X31837Y-13050D01*
X31775Y-13112D01*
X31775Y-13349D01*
X31813Y-13441D01*
X31883Y-13511D01*
X31939Y-13535D01*
X31510Y-13535D01*
X31566Y-13511D01*
X31636Y-13441D01*
X31675Y-13349D01*
X31675Y-13112D01*
X31612Y-13050D01*
X31175Y-13050D01*
X31175Y-13057D01*
X31075Y-13057D01*
X31075Y-13050D01*
X31067Y-13050D01*
X31067Y-12950D01*
X31075Y-12950D01*
X31075Y-12942D01*
X31175Y-12942D01*
X31175Y-12950D01*
X31612Y-12950D01*
X31675Y-12887D01*
X31675Y-12650D01*
X31636Y-12558D01*
X31566Y-12488D01*
X31474Y-12450D01*
X31452Y-12450D01*
X31590Y-12311D01*
X31674Y-12109D01*
X31675Y-11891D01*
X31643Y-11815D01*
X31806Y-11815D01*
X31775Y-11890D01*
X31774Y-12108D01*
X31858Y-12311D01*
X31997Y-12450D01*
X31975Y-12450D01*
X31883Y-12488D01*
X31813Y-12558D01*
X31775Y-12650D01*
X31775Y-12887D01*
X31837Y-12950D01*
X32275Y-12950D01*
X32275Y-12942D01*
X32375Y-12942D01*
X32375Y-12950D01*
X32812Y-12950D01*
X32875Y-12887D01*
X32875Y-12650D01*
X32836Y-12558D01*
X32766Y-12488D01*
X32674Y-12450D01*
X32652Y-12450D01*
X32790Y-12311D01*
X32874Y-12109D01*
X32875Y-11891D01*
X32842Y-11811D01*
X32935Y-11792D01*
X33030Y-11730D01*
X33149Y-11610D01*
X33149Y-11610D01*
G37*
X33149Y-11610D02*
X33127Y-11644D01*
X33105Y-11755D01*
X33105Y-13904D01*
X33085Y-13874D01*
X32830Y-13619D01*
X32735Y-13557D01*
X32683Y-13546D01*
X32766Y-13511D01*
X32836Y-13441D01*
X32875Y-13349D01*
X32875Y-13112D01*
X32812Y-13050D01*
X32375Y-13050D01*
X32375Y-13057D01*
X32275Y-13057D01*
X32275Y-13050D01*
X31837Y-13050D01*
X31775Y-13112D01*
X31775Y-13349D01*
X31813Y-13441D01*
X31883Y-13511D01*
X31939Y-13535D01*
X31510Y-13535D01*
X31566Y-13511D01*
X31636Y-13441D01*
X31675Y-13349D01*
X31675Y-13112D01*
X31612Y-13050D01*
X31175Y-13050D01*
X31175Y-13057D01*
X31075Y-13057D01*
X31075Y-13050D01*
X31067Y-13050D01*
X31067Y-12950D01*
X31075Y-12950D01*
X31075Y-12942D01*
X31175Y-12942D01*
X31175Y-12950D01*
X31612Y-12950D01*
X31675Y-12887D01*
X31675Y-12650D01*
X31636Y-12558D01*
X31566Y-12488D01*
X31474Y-12450D01*
X31452Y-12450D01*
X31590Y-12311D01*
X31674Y-12109D01*
X31675Y-11891D01*
X31643Y-11815D01*
X31806Y-11815D01*
X31775Y-11890D01*
X31774Y-12108D01*
X31858Y-12311D01*
X31997Y-12450D01*
X31975Y-12450D01*
X31883Y-12488D01*
X31813Y-12558D01*
X31775Y-12650D01*
X31775Y-12887D01*
X31837Y-12950D01*
X32275Y-12950D01*
X32275Y-12942D01*
X32375Y-12942D01*
X32375Y-12950D01*
X32812Y-12950D01*
X32875Y-12887D01*
X32875Y-12650D01*
X32836Y-12558D01*
X32766Y-12488D01*
X32674Y-12450D01*
X32652Y-12450D01*
X32790Y-12311D01*
X32874Y-12109D01*
X32875Y-11891D01*
X32842Y-11811D01*
X32935Y-11792D01*
X33030Y-11730D01*
X33149Y-11610D01*
G36*
X34700Y-21679D02*
X34679Y-21700D01*
X33450Y-21700D01*
X33600Y-21550D01*
X33662Y-21455D01*
X33685Y-21345D01*
X33685Y-20506D01*
X33790Y-20549D01*
X34008Y-20550D01*
X34211Y-20466D01*
X34365Y-20311D01*
X34449Y-20109D01*
X34450Y-19891D01*
X34366Y-19688D01*
X34211Y-19534D01*
X34130Y-19500D01*
X34211Y-19466D01*
X34365Y-19311D01*
X34449Y-19109D01*
X34450Y-18891D01*
X34366Y-18688D01*
X34227Y-18550D01*
X34249Y-18550D01*
X34341Y-18511D01*
X34411Y-18441D01*
X34450Y-18349D01*
X34450Y-18112D01*
X34387Y-18050D01*
X33950Y-18050D01*
X33950Y-18057D01*
X33850Y-18057D01*
X33850Y-18050D01*
X33842Y-18050D01*
X33842Y-17950D01*
X33850Y-17950D01*
X33850Y-17942D01*
X33950Y-17942D01*
X33950Y-17950D01*
X34387Y-17950D01*
X34450Y-17887D01*
X34450Y-17650D01*
X34411Y-17558D01*
X34341Y-17488D01*
X34249Y-17450D01*
X34227Y-17450D01*
X34365Y-17311D01*
X34449Y-17109D01*
X34450Y-16891D01*
X34366Y-16688D01*
X34211Y-16534D01*
X34130Y-16500D01*
X34211Y-16466D01*
X34365Y-16311D01*
X34449Y-16109D01*
X34450Y-15891D01*
X34366Y-15688D01*
X34211Y-15534D01*
X34130Y-15500D01*
X34211Y-15466D01*
X34303Y-15374D01*
X34425Y-15424D01*
X34594Y-15425D01*
X34700Y-15381D01*
X34700Y-21679D01*
X34700Y-21679D01*
G37*
X34700Y-21679D02*
X34679Y-21700D01*
X33450Y-21700D01*
X33600Y-21550D01*
X33662Y-21455D01*
X33685Y-21345D01*
X33685Y-20506D01*
X33790Y-20549D01*
X34008Y-20550D01*
X34211Y-20466D01*
X34365Y-20311D01*
X34449Y-20109D01*
X34450Y-19891D01*
X34366Y-19688D01*
X34211Y-19534D01*
X34130Y-19500D01*
X34211Y-19466D01*
X34365Y-19311D01*
X34449Y-19109D01*
X34450Y-18891D01*
X34366Y-18688D01*
X34227Y-18550D01*
X34249Y-18550D01*
X34341Y-18511D01*
X34411Y-18441D01*
X34450Y-18349D01*
X34450Y-18112D01*
X34387Y-18050D01*
X33950Y-18050D01*
X33950Y-18057D01*
X33850Y-18057D01*
X33850Y-18050D01*
X33842Y-18050D01*
X33842Y-17950D01*
X33850Y-17950D01*
X33850Y-17942D01*
X33950Y-17942D01*
X33950Y-17950D01*
X34387Y-17950D01*
X34450Y-17887D01*
X34450Y-17650D01*
X34411Y-17558D01*
X34341Y-17488D01*
X34249Y-17450D01*
X34227Y-17450D01*
X34365Y-17311D01*
X34449Y-17109D01*
X34450Y-16891D01*
X34366Y-16688D01*
X34211Y-16534D01*
X34130Y-16500D01*
X34211Y-16466D01*
X34365Y-16311D01*
X34449Y-16109D01*
X34450Y-15891D01*
X34366Y-15688D01*
X34211Y-15534D01*
X34130Y-15500D01*
X34211Y-15466D01*
X34303Y-15374D01*
X34425Y-15424D01*
X34594Y-15425D01*
X34700Y-15381D01*
X34700Y-21679D01*
M02*
