%FSLAX34Y34*%
G04 Gerber Fmt 3.4, Leading zero omitted, Abs format*
G04 (created by PCBNEW (2014-05-21 BZR 4875)-product) date Saturday 24 May 2014 06:33:15 PM IST*
%MOIN*%
G01*
G70*
G90*
G04 APERTURE LIST*
%ADD10C,0.006000*%
%ADD11C,0.010000*%
%ADD12C,0.040000*%
%ADD13R,0.030000X0.040000*%
%ADD14R,0.040000X0.040000*%
%ADD15C,0.060000*%
%ADD16R,0.060000X0.060000*%
%ADD17R,0.056000X0.042000*%
%ADD18R,0.042000X0.056000*%
%ADD19R,0.040000X0.050000*%
%ADD20R,0.017700X0.078700*%
%ADD21R,0.078700X0.017700*%
%ADD22R,0.059000X0.051200*%
%ADD23R,0.051200X0.059000*%
%ADD24C,0.120000*%
%ADD25R,0.030000X0.060000*%
%ADD26R,0.040000X0.060000*%
%ADD27R,0.060000X0.080000*%
%ADD28C,0.045000*%
%ADD29R,0.059100X0.039400*%
%ADD30R,0.031500X0.047200*%
%ADD31R,0.064000X0.120000*%
%ADD32R,0.078740X0.047244*%
%ADD33C,0.035000*%
%ADD34C,0.008000*%
G04 APERTURE END LIST*
G54D10*
G54D11*
X10000Y-10000D02*
X35000Y-10000D01*
X35000Y-22000D02*
X10000Y-22000D01*
X35000Y-10000D02*
X35000Y-22000D01*
X10000Y-22000D02*
X10000Y-10000D01*
G54D12*
X17350Y-21625D03*
X15875Y-18700D03*
X25325Y-19600D03*
X24325Y-19600D03*
X23325Y-19600D03*
X22325Y-19600D03*
G54D13*
X19225Y-17125D03*
X19225Y-15875D03*
G54D12*
X17475Y-18700D03*
G54D13*
X18825Y-15875D03*
X18825Y-17125D03*
G54D14*
X26325Y-19600D03*
G54D12*
X27325Y-19600D03*
X26325Y-21100D03*
G54D15*
X33900Y-20000D03*
X33900Y-19000D03*
G54D16*
X33900Y-18000D03*
G54D15*
X33900Y-12000D03*
X33900Y-13000D03*
X33900Y-14000D03*
X33900Y-15000D03*
X33900Y-16000D03*
X33900Y-17000D03*
G54D12*
X34640Y-12000D03*
X34640Y-13000D03*
X34640Y-14000D03*
X21325Y-19600D03*
G54D15*
X32325Y-12000D03*
G54D16*
X32325Y-13000D03*
G54D17*
X17825Y-16925D03*
X17825Y-16125D03*
X29050Y-12000D03*
X29050Y-12800D03*
X25525Y-13825D03*
X25525Y-14625D03*
G54D18*
X26800Y-16750D03*
X26000Y-16750D03*
X24080Y-10990D03*
X23280Y-10990D03*
X22405Y-10990D03*
X21605Y-10990D03*
G54D19*
X25775Y-10975D03*
X24975Y-10975D03*
X27400Y-10975D03*
X26600Y-10975D03*
G54D20*
X21423Y-14716D03*
X21738Y-14716D03*
X22053Y-14716D03*
X22368Y-14716D03*
X22682Y-14716D03*
X22997Y-14716D03*
X23312Y-14716D03*
X23627Y-14716D03*
X23627Y-17984D03*
X21423Y-17984D03*
X21738Y-17984D03*
X22053Y-17984D03*
X22368Y-17984D03*
X22682Y-17984D03*
X22997Y-17984D03*
X23312Y-17984D03*
G54D21*
X24159Y-15248D03*
X24159Y-15563D03*
X24159Y-15878D03*
X24159Y-16193D03*
X24159Y-16507D03*
X24159Y-16822D03*
X24159Y-17137D03*
X24159Y-17452D03*
X20891Y-15248D03*
X20891Y-15563D03*
X20891Y-15878D03*
X20891Y-16193D03*
X20891Y-16507D03*
X20891Y-16822D03*
X20891Y-17137D03*
X20891Y-17452D03*
G54D15*
X20325Y-21100D03*
X21325Y-21100D03*
X22325Y-21100D03*
G54D16*
X23325Y-21100D03*
X24325Y-21100D03*
G54D15*
X25325Y-21100D03*
X27325Y-21100D03*
X28325Y-21100D03*
X29325Y-21100D03*
X30325Y-21100D03*
X31325Y-21100D03*
X32325Y-21100D03*
X31125Y-12000D03*
G54D16*
X31125Y-13000D03*
X32325Y-19600D03*
G54D15*
X32325Y-18600D03*
X32325Y-17600D03*
X32325Y-16600D03*
X32325Y-15600D03*
X32325Y-14600D03*
X18575Y-11800D03*
X18575Y-10800D03*
X19575Y-11800D03*
X19575Y-10800D03*
X20575Y-11800D03*
G54D16*
X20575Y-10800D03*
G54D22*
X31325Y-18975D03*
X31325Y-19725D03*
X30275Y-18975D03*
X30275Y-19725D03*
G54D23*
X25000Y-12085D03*
X25750Y-12085D03*
X26775Y-17750D03*
X26025Y-17750D03*
X26625Y-12085D03*
X27375Y-12085D03*
G54D24*
X18725Y-21250D03*
G54D25*
X12625Y-15350D03*
X12192Y-15350D03*
X11759Y-15350D03*
X11326Y-15350D03*
X10893Y-15350D03*
X13058Y-15350D03*
X13491Y-15350D03*
X13924Y-15350D03*
X14357Y-15350D03*
G54D26*
X10363Y-15586D03*
G54D27*
X10499Y-19434D03*
G54D26*
X16562Y-19434D03*
G54D16*
X16240Y-15504D03*
G54D28*
X11600Y-19650D03*
X14750Y-19650D03*
G54D29*
X19425Y-19375D03*
X17375Y-19375D03*
X17375Y-20075D03*
X19425Y-20075D03*
G54D30*
X27150Y-13825D03*
X26775Y-14775D03*
X26400Y-13825D03*
G54D31*
X29070Y-15840D03*
X29045Y-14040D03*
G54D32*
X22191Y-12988D03*
X23648Y-12121D03*
X22191Y-12121D03*
X23648Y-12988D03*
G54D12*
X25425Y-12850D03*
X26425Y-12850D03*
G54D33*
X28500Y-11225D03*
X18715Y-13550D03*
X30905Y-18150D03*
X12740Y-16500D03*
X10535Y-12510D03*
X11600Y-12510D03*
X19200Y-18745D03*
X17200Y-16980D03*
X31775Y-15100D03*
X31500Y-17450D03*
X29290Y-19690D03*
X33010Y-20000D03*
X34510Y-15000D03*
X20250Y-12900D03*
X32100Y-11160D03*
X19805Y-12895D03*
X32460Y-10680D03*
X19455Y-13925D03*
X26625Y-11560D03*
X18075Y-14450D03*
X26900Y-19925D03*
X12565Y-14425D03*
X11410Y-16000D03*
X20850Y-18100D03*
X18380Y-15220D03*
X18000Y-13880D03*
X18000Y-13200D03*
X18905Y-14930D03*
X21575Y-17000D03*
X14910Y-15380D03*
X13660Y-12130D03*
X16450Y-20470D03*
X14450Y-20480D03*
X28100Y-19700D03*
X22650Y-17280D03*
X17070Y-14930D03*
X17070Y-15700D03*
X22205Y-17275D03*
X13325Y-18790D03*
X16875Y-16500D03*
X16200Y-17175D03*
X15450Y-21410D03*
X21850Y-20150D03*
X22680Y-13750D03*
X12100Y-17010D03*
X16140Y-14910D03*
X11250Y-17500D03*
X27770Y-13700D03*
X28030Y-11500D03*
X18510Y-19600D03*
X30920Y-17435D03*
G54D34*
X31325Y-18975D02*
X31325Y-18600D01*
X31325Y-18600D02*
X32325Y-17600D01*
X32825Y-16950D02*
X32825Y-17100D01*
X32825Y-17100D02*
X32325Y-17600D01*
X27875Y-13350D02*
X25650Y-13350D01*
X25525Y-13475D02*
X25525Y-13825D01*
X25650Y-13350D02*
X25525Y-13475D01*
X25525Y-13825D02*
X25525Y-13625D01*
X28505Y-12255D02*
X28500Y-11225D01*
X13058Y-14862D02*
X14370Y-13550D01*
X14370Y-13550D02*
X18715Y-13550D01*
X13058Y-15350D02*
X13058Y-14862D01*
X27875Y-13350D02*
X28505Y-12720D01*
X28505Y-12720D02*
X28505Y-12255D01*
X26400Y-13825D02*
X25525Y-13825D01*
X25525Y-13825D02*
X25625Y-13825D01*
X25525Y-13825D02*
X25600Y-13825D01*
X31815Y-11490D02*
X32325Y-12000D01*
X32825Y-16950D02*
X32825Y-12500D01*
X32825Y-12500D02*
X32325Y-12000D01*
X31320Y-11490D02*
X31815Y-11490D01*
X30894Y-10244D02*
X19131Y-10244D01*
X31050Y-11220D02*
X31050Y-10400D01*
X31320Y-11490D02*
X31050Y-11220D01*
X31050Y-10400D02*
X30894Y-10244D01*
X18575Y-10800D02*
X19131Y-10244D01*
X26775Y-17750D02*
X30505Y-17750D01*
X30505Y-17750D02*
X30905Y-18150D01*
X32325Y-17600D02*
X32090Y-17600D01*
X13058Y-15350D02*
X13058Y-15772D01*
X12740Y-16090D02*
X12740Y-16500D01*
X13058Y-15772D02*
X12740Y-16090D01*
X11600Y-12510D02*
X10535Y-12510D01*
X22370Y-15410D02*
X22370Y-16650D01*
X22370Y-16650D02*
X21738Y-17282D01*
X21738Y-17282D02*
X21738Y-17984D01*
X22682Y-14716D02*
X22682Y-15278D01*
X22053Y-15303D02*
X22053Y-14716D01*
X22160Y-15410D02*
X22053Y-15303D01*
X22550Y-15410D02*
X22370Y-15410D01*
X22370Y-15410D02*
X22160Y-15410D01*
X22682Y-15278D02*
X22550Y-15410D01*
X31325Y-18975D02*
X30275Y-18975D01*
X22692Y-14454D02*
X22692Y-14983D01*
X22692Y-14454D02*
X22682Y-14716D01*
X21745Y-18220D02*
X21738Y-17984D01*
X21745Y-18220D02*
X21745Y-17655D01*
X21738Y-17984D02*
X21745Y-17655D01*
X22682Y-14716D02*
X22692Y-14983D01*
X31635Y-18975D02*
X31760Y-19100D01*
X31760Y-19100D02*
X33040Y-19100D01*
X33040Y-19100D02*
X33140Y-19000D01*
X33140Y-19000D02*
X33900Y-19000D01*
X31325Y-18975D02*
X31635Y-18975D01*
X21738Y-17984D02*
X21738Y-18452D01*
X21440Y-18750D02*
X21738Y-18452D01*
X21440Y-18750D02*
X19200Y-18745D01*
X17255Y-16925D02*
X17200Y-16980D01*
X17825Y-16925D02*
X17255Y-16925D01*
X31500Y-17450D02*
X31500Y-18100D01*
X31500Y-18100D02*
X31150Y-18450D01*
X31775Y-15100D02*
X31210Y-15100D01*
X31210Y-15100D02*
X30992Y-15317D01*
X24159Y-15248D02*
X27023Y-15248D01*
X27023Y-15248D02*
X28500Y-16725D01*
X30992Y-15317D02*
X29585Y-16725D01*
X29585Y-16725D02*
X28500Y-16725D01*
X29290Y-19690D02*
X29290Y-18735D01*
X29575Y-18450D02*
X31150Y-18450D01*
X29290Y-18735D02*
X29575Y-18450D01*
X33900Y-20000D02*
X33010Y-20000D01*
X30605Y-20425D02*
X23275Y-20425D01*
X22850Y-20000D02*
X22850Y-19410D01*
X23275Y-20425D02*
X22850Y-20000D01*
X33600Y-15500D02*
X33430Y-15330D01*
X33430Y-13470D02*
X33900Y-13000D01*
X33430Y-15330D02*
X33430Y-13470D01*
X34280Y-15500D02*
X33600Y-15500D01*
X34500Y-20360D02*
X34500Y-15720D01*
X33240Y-21620D02*
X34500Y-20360D01*
X31000Y-21620D02*
X33240Y-21620D01*
X30820Y-21440D02*
X31000Y-21620D01*
X30820Y-20640D02*
X30820Y-21440D01*
X30605Y-20425D02*
X30820Y-20640D01*
X23312Y-18948D02*
X22850Y-19410D01*
X23312Y-17984D02*
X23312Y-18948D01*
X34280Y-15500D02*
X34500Y-15720D01*
X29475Y-20575D02*
X23125Y-20575D01*
X23125Y-20575D02*
X23000Y-20450D01*
X22053Y-18477D02*
X21445Y-19085D01*
X22053Y-17984D02*
X22053Y-18477D01*
X21445Y-19085D02*
X21105Y-19085D01*
X21105Y-19085D02*
X20855Y-19335D01*
X20855Y-19335D02*
X20855Y-20205D01*
X20855Y-20205D02*
X21100Y-20450D01*
X21100Y-20450D02*
X23000Y-20450D01*
X33350Y-21850D02*
X34725Y-20475D01*
X30200Y-21850D02*
X33350Y-21850D01*
X29825Y-21475D02*
X30200Y-21850D01*
X29825Y-20925D02*
X29825Y-21475D01*
X29475Y-20575D02*
X29825Y-20925D01*
X34725Y-15215D02*
X34725Y-20475D01*
X34510Y-15000D02*
X34725Y-15215D01*
X20891Y-15248D02*
X20493Y-15248D01*
X20250Y-15005D02*
X20250Y-12900D01*
X20493Y-15248D02*
X20250Y-15005D01*
X32650Y-11160D02*
X32100Y-11160D01*
X32650Y-11160D02*
X33050Y-11560D01*
X33050Y-11560D02*
X33050Y-16480D01*
X33050Y-16480D02*
X33570Y-17000D01*
X33570Y-17000D02*
X33900Y-17000D01*
X20891Y-15248D02*
X20932Y-15248D01*
X20891Y-15563D02*
X20253Y-15563D01*
X19805Y-15115D02*
X19805Y-12895D01*
X20253Y-15563D02*
X19805Y-15115D01*
X33450Y-16000D02*
X33900Y-16000D01*
X33225Y-15775D02*
X33450Y-16000D01*
X33225Y-11045D02*
X33225Y-15775D01*
X32860Y-10680D02*
X33225Y-11045D01*
X32860Y-10680D02*
X32460Y-10680D01*
X24803Y-17253D02*
X24803Y-19078D01*
X24803Y-19078D02*
X25325Y-19600D01*
X24159Y-17137D02*
X24687Y-17137D01*
X24687Y-17137D02*
X24803Y-17253D01*
X25425Y-12850D02*
X25000Y-12850D01*
X25000Y-12085D02*
X25000Y-12850D01*
X25000Y-12850D02*
X25000Y-13825D01*
X24765Y-14060D02*
X23470Y-14060D01*
X25000Y-13825D02*
X24765Y-14060D01*
X23470Y-14060D02*
X23312Y-14218D01*
X23312Y-14218D02*
X23312Y-14716D01*
X26625Y-12085D02*
X26625Y-12650D01*
X26625Y-12650D02*
X26425Y-12850D01*
X20891Y-15878D02*
X20123Y-15878D01*
X19455Y-15210D02*
X19455Y-13925D01*
X20123Y-15878D02*
X19455Y-15210D01*
X26625Y-11560D02*
X26625Y-12085D01*
X11759Y-15350D02*
X11759Y-12986D01*
X11759Y-12986D02*
X13455Y-11290D01*
X18575Y-11800D02*
X15700Y-11800D01*
X15190Y-11290D02*
X13455Y-11290D01*
X15700Y-11800D02*
X15190Y-11290D01*
X11759Y-15350D02*
X11759Y-17179D01*
X11759Y-17179D02*
X12480Y-17900D01*
X12480Y-17900D02*
X17480Y-17900D01*
X17480Y-17900D02*
X17855Y-18275D01*
X17855Y-18275D02*
X19525Y-18275D01*
X19525Y-18275D02*
X20348Y-17452D01*
X20348Y-17452D02*
X20891Y-17452D01*
X18075Y-15500D02*
X18399Y-15824D01*
X18075Y-14450D02*
X18075Y-15500D01*
X18399Y-15824D02*
X18399Y-17315D01*
X18075Y-14450D02*
X13750Y-14450D01*
X13491Y-14709D02*
X13750Y-14450D01*
X13491Y-14709D02*
X13491Y-15350D01*
X19756Y-17494D02*
X20113Y-17137D01*
X20113Y-17137D02*
X20891Y-17137D01*
X18399Y-17315D02*
X18578Y-17494D01*
X18578Y-17494D02*
X19756Y-17494D01*
X20891Y-16193D02*
X19543Y-16193D01*
X19543Y-16193D02*
X19225Y-15875D01*
X20891Y-16507D02*
X19843Y-16507D01*
X19843Y-16507D02*
X19225Y-17125D01*
X24340Y-12335D02*
X24340Y-13255D01*
X24340Y-13255D02*
X24135Y-13460D01*
X24080Y-10990D02*
X24080Y-11380D01*
X23648Y-11811D02*
X23648Y-12121D01*
X24080Y-11380D02*
X23648Y-11811D01*
X24126Y-12121D02*
X24340Y-12335D01*
X24135Y-13460D02*
X22145Y-13460D01*
X22145Y-13460D02*
X21738Y-13867D01*
X21738Y-13867D02*
X21738Y-14716D01*
X23648Y-12121D02*
X24126Y-12121D01*
X21423Y-13000D02*
X21423Y-11752D01*
X21605Y-11570D02*
X21605Y-10990D01*
X21423Y-11752D02*
X21605Y-11570D01*
X21423Y-13000D02*
X21423Y-14716D01*
X22179Y-13000D02*
X22191Y-12988D01*
X21423Y-13000D02*
X22179Y-13000D01*
X26000Y-16750D02*
X26000Y-17725D01*
X26000Y-17725D02*
X26025Y-17750D01*
X28350Y-20025D02*
X27000Y-20025D01*
X27000Y-20025D02*
X26900Y-19925D01*
X26025Y-17750D02*
X26025Y-18575D01*
X28525Y-19850D02*
X28350Y-20025D01*
X28525Y-19025D02*
X28525Y-19850D01*
X28275Y-18775D02*
X28525Y-19025D01*
X26225Y-18775D02*
X28275Y-18775D01*
X26025Y-18575D02*
X26225Y-18775D01*
X15795Y-12570D02*
X19805Y-12570D01*
X19805Y-12570D02*
X20575Y-11800D01*
X24159Y-16193D02*
X24918Y-16193D01*
X24918Y-16193D02*
X25475Y-16750D01*
X19425Y-20075D02*
X17375Y-20075D01*
X20325Y-20425D02*
X19975Y-20075D01*
X19975Y-20075D02*
X19425Y-20075D01*
X20325Y-21100D02*
X20325Y-20425D01*
X26000Y-16750D02*
X25475Y-16750D01*
X15795Y-12570D02*
X14980Y-11755D01*
X14980Y-11755D02*
X13585Y-11755D01*
X13585Y-11755D02*
X12565Y-12775D01*
X12565Y-12775D02*
X12565Y-14425D01*
X11410Y-16000D02*
X11575Y-16165D01*
X11575Y-16165D02*
X11575Y-17255D01*
X11575Y-17255D02*
X12615Y-18295D01*
X12615Y-18295D02*
X13505Y-18295D01*
X13505Y-18295D02*
X13720Y-18510D01*
X13720Y-18510D02*
X13720Y-20670D01*
X13720Y-20670D02*
X13970Y-20920D01*
X13970Y-20920D02*
X17115Y-20920D01*
X17115Y-20920D02*
X17375Y-20660D01*
X17375Y-20660D02*
X17375Y-20075D01*
X24159Y-15878D02*
X27053Y-15878D01*
X27053Y-15878D02*
X28375Y-17200D01*
X28375Y-17200D02*
X30160Y-17200D01*
X30160Y-17200D02*
X30760Y-16600D01*
X30760Y-16600D02*
X32325Y-16600D01*
X18380Y-15220D02*
X18380Y-14050D01*
X18210Y-13880D02*
X18000Y-13880D01*
X18380Y-14050D02*
X18210Y-13880D01*
X18000Y-13200D02*
X14360Y-13200D01*
X12625Y-14935D02*
X12625Y-15350D01*
X14360Y-13200D02*
X12625Y-14935D01*
X21423Y-17984D02*
X20966Y-17984D01*
X20966Y-17984D02*
X20850Y-18100D01*
X18905Y-14930D02*
X18905Y-14385D01*
X19055Y-13290D02*
X18640Y-12875D01*
X19055Y-14235D02*
X19055Y-13290D01*
X18905Y-14385D02*
X19055Y-14235D01*
X21397Y-16822D02*
X21575Y-17000D01*
X20891Y-16822D02*
X21397Y-16822D01*
X13924Y-15774D02*
X14100Y-15950D01*
X14100Y-15950D02*
X14730Y-15950D01*
X14730Y-15950D02*
X14910Y-15770D01*
X14910Y-15770D02*
X14910Y-15380D01*
X13924Y-15350D02*
X13924Y-15774D01*
X15020Y-12130D02*
X15765Y-12875D01*
X15765Y-12875D02*
X18640Y-12875D01*
X13660Y-12130D02*
X15020Y-12130D01*
X24159Y-15563D02*
X27013Y-15563D01*
X27013Y-15563D02*
X28425Y-16975D01*
X32325Y-15600D02*
X31210Y-15600D01*
X28425Y-16975D02*
X29835Y-16975D01*
X31210Y-15600D02*
X29835Y-16975D01*
X17475Y-18700D02*
X16480Y-18700D01*
X16450Y-20380D02*
X16450Y-20470D01*
X16040Y-19970D02*
X16450Y-20380D01*
X16040Y-19140D02*
X16040Y-19970D01*
X16480Y-18700D02*
X16040Y-19140D01*
X26775Y-14775D02*
X27225Y-14775D01*
X27225Y-14775D02*
X28290Y-15840D01*
X31125Y-12000D02*
X29050Y-12000D01*
X30450Y-12675D02*
X31125Y-12000D01*
X30450Y-15400D02*
X30450Y-12675D01*
X30075Y-15775D02*
X30450Y-15400D01*
X29135Y-15775D02*
X30075Y-15775D01*
X28290Y-15840D02*
X29070Y-15840D01*
X29005Y-15775D02*
X29070Y-15840D01*
X29135Y-15775D02*
X29070Y-15840D01*
X14940Y-20480D02*
X15390Y-20030D01*
X14450Y-20480D02*
X14940Y-20480D01*
X15390Y-19185D02*
X15875Y-18700D01*
X15390Y-20030D02*
X15390Y-19185D01*
X24159Y-16507D02*
X23423Y-16507D01*
X23423Y-16507D02*
X22650Y-17280D01*
X25215Y-16925D02*
X25215Y-18240D01*
X25215Y-18240D02*
X25950Y-18975D01*
X25950Y-18975D02*
X27825Y-18975D01*
X28100Y-19250D02*
X28100Y-19700D01*
X27825Y-18975D02*
X28100Y-19250D01*
X24797Y-16507D02*
X25215Y-16925D01*
X24159Y-16507D02*
X24797Y-16507D01*
X17070Y-15700D02*
X17070Y-14930D01*
X31325Y-20100D02*
X32325Y-21100D01*
X31325Y-19725D02*
X31325Y-20100D01*
X24985Y-17150D02*
X24985Y-18385D01*
X25800Y-19200D02*
X25800Y-20050D01*
X24985Y-18385D02*
X25800Y-19200D01*
X29425Y-20250D02*
X26000Y-20250D01*
X26000Y-20250D02*
X25800Y-20050D01*
X24159Y-16822D02*
X24657Y-16822D01*
X24657Y-16822D02*
X24985Y-17150D01*
X29950Y-19725D02*
X29425Y-20250D01*
X30275Y-19725D02*
X29950Y-19725D01*
X31325Y-20775D02*
X30275Y-19725D01*
X31325Y-21100D02*
X31325Y-20775D01*
X22540Y-16940D02*
X22540Y-16300D01*
X22540Y-16300D02*
X23627Y-15213D01*
X23627Y-14716D02*
X23627Y-15213D01*
X22540Y-16940D02*
X22205Y-17275D01*
X16875Y-16500D02*
X16480Y-16500D01*
X16200Y-16780D02*
X16200Y-17175D01*
X16480Y-16500D02*
X16200Y-16780D01*
X15450Y-21625D02*
X14275Y-21625D01*
X13325Y-18790D02*
X13325Y-20675D01*
X14275Y-21625D02*
X13325Y-20675D01*
X17345Y-21620D02*
X17350Y-21625D01*
X17350Y-21625D02*
X15450Y-21625D01*
X15450Y-21410D02*
X15450Y-21625D01*
X22925Y-10475D02*
X20900Y-10475D01*
X20900Y-10475D02*
X20575Y-10800D01*
X24975Y-10475D02*
X22925Y-10475D01*
X22925Y-10475D02*
X22920Y-10475D01*
X20970Y-20620D02*
X22845Y-20620D01*
X20970Y-20620D02*
X20400Y-20050D01*
X20400Y-20050D02*
X20400Y-19620D01*
X20400Y-19620D02*
X20155Y-19375D01*
X20155Y-19375D02*
X19425Y-19375D01*
X22845Y-20620D02*
X23325Y-21100D01*
X25525Y-14625D02*
X25975Y-14625D01*
X27150Y-14150D02*
X27150Y-13825D01*
X27000Y-14300D02*
X27150Y-14150D01*
X26300Y-14300D02*
X27000Y-14300D01*
X25975Y-14625D02*
X26300Y-14300D01*
X27150Y-13825D02*
X27425Y-13825D01*
X27550Y-13700D02*
X27770Y-13700D01*
X27425Y-13825D02*
X27550Y-13700D01*
X29050Y-12800D02*
X29050Y-14035D01*
X29050Y-14035D02*
X29045Y-14040D01*
X22920Y-10990D02*
X22920Y-10475D01*
X22191Y-12121D02*
X22920Y-12121D01*
X23648Y-12988D02*
X23163Y-12988D01*
X23163Y-12988D02*
X22920Y-12745D01*
X22920Y-12745D02*
X22920Y-12121D01*
X22920Y-12121D02*
X22920Y-10990D01*
X22191Y-12121D02*
X22191Y-12008D01*
X23280Y-10990D02*
X22920Y-10990D01*
X22920Y-10990D02*
X22405Y-10990D01*
X15930Y-12350D02*
X19740Y-12350D01*
X12192Y-15350D02*
X12192Y-12868D01*
X12192Y-12868D02*
X13540Y-11520D01*
X13540Y-11520D02*
X15100Y-11520D01*
X15100Y-11520D02*
X15930Y-12350D01*
X20085Y-11290D02*
X20575Y-10800D01*
X20085Y-12005D02*
X20085Y-11290D01*
X19740Y-12350D02*
X20085Y-12005D01*
X22682Y-17984D02*
X22682Y-18538D01*
X22682Y-18538D02*
X21850Y-19370D01*
X21850Y-19370D02*
X21850Y-20150D01*
X22675Y-14025D02*
X22675Y-13755D01*
X22675Y-13755D02*
X22680Y-13750D01*
X12100Y-17010D02*
X15020Y-17010D01*
X15020Y-17010D02*
X15510Y-16520D01*
X12192Y-16388D02*
X12192Y-15350D01*
X12100Y-16480D02*
X12192Y-16388D01*
X12100Y-17010D02*
X12100Y-16480D01*
X15696Y-15504D02*
X15510Y-15690D01*
X16240Y-15504D02*
X15696Y-15504D01*
X15510Y-15690D02*
X15510Y-16520D01*
X16240Y-15010D02*
X16240Y-15504D01*
X16140Y-14910D02*
X16240Y-15010D01*
X17825Y-16125D02*
X16495Y-16125D01*
X16495Y-16125D02*
X16240Y-15870D01*
X16240Y-15870D02*
X16240Y-15504D01*
X11250Y-17500D02*
X10500Y-17500D01*
X10363Y-15586D02*
X10363Y-16613D01*
X10363Y-16613D02*
X10500Y-16750D01*
X10500Y-16750D02*
X10500Y-17500D01*
X10499Y-17501D02*
X10499Y-19434D01*
X10500Y-17500D02*
X10499Y-17501D01*
X18825Y-17125D02*
X18825Y-15875D01*
X26600Y-10975D02*
X26600Y-10475D01*
X22997Y-14147D02*
X22875Y-14025D01*
X22875Y-14025D02*
X22675Y-14025D01*
X22997Y-14716D02*
X22997Y-14147D01*
X10363Y-19298D02*
X10499Y-19434D01*
X32925Y-18000D02*
X32325Y-18600D01*
X33900Y-18000D02*
X32925Y-18000D01*
X24970Y-10980D02*
X24975Y-10975D01*
X24975Y-10475D02*
X26600Y-10475D01*
X24975Y-10975D02*
X24975Y-10475D01*
X27970Y-13700D02*
X28310Y-14040D01*
X28310Y-14040D02*
X29045Y-14040D01*
X27770Y-13700D02*
X27970Y-13700D01*
X27175Y-13800D02*
X27150Y-13825D01*
X22368Y-14142D02*
X22485Y-14025D01*
X22485Y-14025D02*
X22675Y-14025D01*
X22368Y-14716D02*
X22368Y-14142D01*
X27765Y-10475D02*
X28030Y-10740D01*
X28030Y-10740D02*
X28030Y-11500D01*
X26600Y-10475D02*
X27765Y-10475D01*
X18510Y-19375D02*
X19425Y-19375D01*
X17375Y-19375D02*
X18510Y-19375D01*
X18510Y-19375D02*
X18510Y-19600D01*
X16815Y-19375D02*
X17375Y-19375D01*
X16756Y-19434D02*
X16815Y-19375D01*
X16562Y-19434D02*
X16756Y-19434D01*
X30920Y-17435D02*
X28310Y-17435D01*
X26800Y-16750D02*
X27625Y-16750D01*
X28310Y-17435D02*
X27625Y-16750D01*
X25775Y-10975D02*
X25775Y-12060D01*
X25775Y-12060D02*
X25750Y-12085D01*
X27400Y-10975D02*
X27400Y-12060D01*
X27400Y-12060D02*
X27375Y-12085D01*
X22368Y-17984D02*
X22368Y-18557D01*
X22368Y-18557D02*
X21325Y-19600D01*
X22997Y-17984D02*
X22997Y-18563D01*
X22325Y-19235D02*
X22325Y-19600D01*
X22997Y-18563D02*
X22325Y-19235D01*
X22325Y-19600D02*
X22350Y-19600D01*
X24159Y-17452D02*
X24159Y-19434D01*
X24159Y-19434D02*
X24325Y-19600D01*
X23627Y-17984D02*
X23627Y-18993D01*
X23325Y-19295D02*
X23325Y-19600D01*
X23627Y-18993D02*
X23325Y-19295D01*
M02*
